<?xml version="1.0" standalone="no"?>
<!DOCTYPE svg PUBLIC "-//W3C//DTD SVG 20010904//EN"
 "http://www.w3.org/TR/2001/REC-SVG-20010904/DTD/svg10.dtd">
<svg version="1.0" xmlns="http://www.w3.org/2000/svg"
 width="1786.000000pt" height="798.000000pt" viewBox="0 0 1786.000000 798.000000"
 preserveAspectRatio="xMidYMid meet">

<g transform="translate(0.000000,798.000000) scale(0.100000,-0.100000)"
fill="#000000" stroke="none">
<path d="M9080 7872 c-19 -1 -1495 -3 -3280 -5 -2670 -2 -3252 -5 -3285 -16
-22 -7 -100 -24 -175 -37 -74 -13 -196 -37 -270 -53 -74 -16 -186 -36 -248
-44 -62 -9 -119 -21 -127 -27 -11 -9 -15 -37 -15 -114 0 -55 56 -1281 126
-2724 l125 -2622 -40 -46 c-22 -26 -38 -51 -35 -56 8 -12 -76 -87 -98 -88 -9
0 -19 -4 -22 -9 -4 -6 -242 -181 -342 -251 -85 -60 -192 -130 -198 -130 -10 0
-118 -71 -146 -96 -14 -13 -52 -38 -85 -58 -68 -39 -109 -69 -198 -141 -34
-28 -80 -62 -101 -75 -22 -13 -61 -42 -86 -65 -63 -55 -151 -123 -304 -233
-70 -51 -161 -122 -202 -159 l-74 -66 0 -320 0 -319 643 7 c689 7 1014 6 1197
-4 72 -4 141 -2 185 6 122 21 273 27 299 13 19 -10 37 -9 95 4 73 17 217 25
791 46 162 6 396 16 520 22 124 6 257 12 295 13 39 2 104 8 145 14 134 20 281
30 530 35 135 3 337 14 450 25 147 15 278 21 462 21 158 0 258 4 260 10 6 20
112 30 252 24 123 -5 152 -3 226 15 66 17 164 26 430 42 190 11 361 22 380 25
19 3 87 1 150 -4 63 -5 116 -8 118 -6 2 1 -1 11 -6 21 -9 17 -3 18 112 20 66
2 164 8 216 14 52 6 271 15 485 20 473 10 571 16 602 36 17 12 36 14 75 9 28
-4 54 -3 57 2 3 5 85 12 181 15 96 3 159 2 140 -3 l-35 -7 42 -2 c23 0 48 5
55 12 7 6 38 13 68 14 77 3 135 9 204 22 33 6 64 11 70 11 19 -1 -68 -30 -94
-31 -15 -1 -19 -3 -8 -6 9 -2 54 3 100 12 45 9 100 19 121 22 21 3 50 9 65 13
24 7 22 8 -17 9 -66 1 -43 12 46 21 43 5 132 17 198 29 66 11 228 29 360 41
132 12 292 30 356 41 64 10 133 19 154 19 38 0 194 22 318 44 44 8 70 9 74 3
3 -6 11 5 17 24 10 30 8 40 -15 84 -14 28 -32 66 -39 85 -7 19 -22 47 -32 62
-10 14 -18 31 -18 38 0 11 -34 89 -68 158 -10 18 -24 41 -33 51 -9 10 -20 27
-23 39 -4 12 -12 22 -17 22 -5 0 -9 7 -9 15 0 14 -19 54 -30 65 -3 3 -16 21
-28 40 -18 30 -22 32 -22 13 0 -12 10 -38 21 -58 14 -23 18 -40 12 -46 -6 -6
-25 24 -53 82 -24 51 -54 103 -67 117 -13 14 -23 33 -23 43 0 9 -6 19 -12 22
-8 2 -9 8 -4 13 5 5 11 4 13 -3 3 -7 11 -13 19 -13 9 0 12 -4 9 -10 -3 -5 0
-10 9 -10 8 0 17 -6 19 -12 4 -10 6 -10 6 -1 1 6 -3 15 -9 18 -5 3 -10 17 -10
30 0 13 -4 27 -10 30 -5 3 -10 16 -10 27 0 34 -61 178 -76 178 -7 0 -11 6 -8
13 2 7 -7 35 -21 62 -16 30 -28 74 -32 110 -3 33 -12 71 -20 84 -13 20 -13 25
-2 32 8 5 22 9 32 9 10 0 15 5 12 10 -4 6 -11 8 -16 5 -5 -4 -9 -1 -9 5 0 7
-8 9 -21 5 -16 -5 -20 -3 -16 6 2 8 9 13 15 12 5 -1 8 7 5 17 -3 11 0 20 6 20
6 0 10 12 10 28 -1 17 -3 21 -6 9 -6 -22 -27 -17 -31 6 -3 14 5 17 48 17 35 0
49 4 44 11 -4 8 0 9 15 4 16 -5 20 -3 15 10 -4 9 -9 14 -11 11 -8 -8 -87 36
-101 56 -8 10 -24 29 -37 41 -14 12 -31 40 -38 62 l-14 40 -69 5 c-64 5 -66 6
-24 10 37 4 46 9 48 27 2 12 -6 31 -17 42 -36 36 -18 131 25 131 8 0 12 5 9
10 -3 6 -2 10 4 10 8 0 24 -32 26 -52 0 -14 40 -37 63 -38 13 0 21 -4 17 -9
-3 -5 6 -21 20 -35 31 -32 32 -19 1 36 -19 34 -31 44 -57 48 -40 6 -48 28 -53
150 -2 47 -14 123 -25 170 -28 110 -58 260 -66 330 -3 30 -8 75 -11 100 -2 25
-6 95 -9 155 -2 61 -7 132 -10 158 -4 28 -2 59 4 75 9 22 -18 328 -134 1517
-86 877 -148 1558 -151 1655 -3 91 -9 181 -13 200 -4 19 -9 64 -10 100 -1 35
-8 78 -15 95 -7 17 -16 61 -20 98 -4 37 -12 69 -17 72 -5 4 -9 15 -9 25 0 10
-4 21 -8 24 -4 2 -179 36 -387 75 -351 64 -392 70 -540 73 -88 2 -176 2 -195
0z m-2770 -192 l0 -110 -135 0 -135 0 0 110 0 110 135 0 135 0 0 -110z m2182
-287 c17 -15 18 -15 18 0 0 12 9 17 30 17 38 0 46 -18 32 -73 -6 -23 -14 -136
-17 -252 -3 -115 -8 -219 -11 -230 -3 -12 0 -34 6 -49 14 -37 -9 -76 -45 -76
-29 0 -34 7 -37 53 -3 38 -18 40 -18 2 0 -13 -4 -27 -10 -30 -5 -3 -10 -15
-10 -26 0 -11 -11 -24 -26 -31 -24 -11 -29 -10 -41 9 -12 17 -21 20 -48 16
-30 -5 -39 -1 -68 28 -32 32 -37 34 -77 27 -23 -4 -48 -15 -55 -25 -16 -22
-28 -12 -30 24 -1 26 -4 28 -48 28 -45 0 -73 17 -61 37 8 13 -19 168 -29 168
-5 0 -6 -16 -2 -37 8 -44 23 -177 20 -181 -1 -1 -14 9 -28 22 -25 23 -27 31
-27 112 0 48 -2 85 -5 82 -10 -9 -13 -228 -4 -234 5 -3 9 5 9 18 0 22 1 21 18
-7 10 -16 24 -45 30 -62 10 -31 9 -33 -14 -39 -17 -4 -34 1 -59 20 -38 29 -45
46 -18 46 15 0 15 1 2 13 -17 13 -42 85 -38 107 1 8 -1 22 -4 30 -4 8 -8 38
-10 65 -2 28 -4 14 -4 -30 1 -45 -3 -86 -7 -93 -4 -7 -3 -12 2 -12 5 0 12 -12
15 -27 3 -16 8 -39 13 -52 6 -21 5 -23 -22 -17 -33 6 -60 -9 -66 -39 -2 -13
-10 -19 -23 -17 -10 2 -24 -3 -29 -10 -17 -23 -54 -40 -61 -28 -3 5 -4 14 0
19 3 5 1 12 -5 16 -5 3 -10 0 -10 -9 0 -8 -3 -21 -6 -30 -5 -13 2 -16 36 -16
23 0 50 -5 61 -10 28 -16 24 -47 -7 -54 -14 -4 -39 -16 -54 -28 -25 -18 -28
-26 -26 -67 2 -25 1 -31 -1 -13 -2 18 -8 30 -13 27 -5 -3 -7 -19 -4 -34 5 -23
2 -30 -15 -36 -12 -3 -21 -9 -22 -13 -3 -32 -11 -48 -26 -60 -15 -11 -20 -10
-35 8 -23 28 -34 25 -14 -4 20 -32 12 -52 -25 -60 -21 -4 -29 -11 -29 -26 0
-11 3 -20 8 -20 10 0 41 -57 34 -64 -3 -3 -15 -6 -28 -6 -25 0 -34 -22 -34
-88 0 -24 -5 -53 -11 -64 -9 -17 -8 -23 5 -30 15 -8 15 -11 1 -24 -8 -9 -15
-33 -15 -54 0 -32 -4 -39 -22 -42 -25 -4 -37 -28 -14 -28 23 0 52 -48 38 -62
-9 -9 -16 -7 -29 5 -17 15 -18 12 -19 -56 -1 -40 -5 -110 -8 -157 l-7 -85 21
31 c16 25 18 37 11 57 -7 18 -6 30 5 46 12 16 13 29 5 58 -7 23 -7 41 -1 47
30 30 76 -59 79 -152 2 -69 22 -112 52 -112 10 0 25 -10 33 -22 16 -23 20 -19
29 32 2 14 8 32 11 42 7 14 3 15 -33 6 -69 -18 -74 -11 -68 95 22 372 53 484
147 543 61 39 97 83 92 111 -4 19 2 31 24 49 39 32 64 31 64 -1 l0 -25 39 20
c23 11 45 32 53 50 15 35 46 47 86 32 15 -6 41 -14 59 -17 17 -3 34 -13 37
-21 4 -11 10 -12 30 -2 18 7 29 8 38 1 14 -12 148 -25 268 -28 58 -1 88 -8
132 -28 32 -15 69 -29 83 -33 14 -3 28 -10 31 -15 3 -5 15 -9 27 -10 37 -1
149 -166 176 -259 7 -25 19 -65 28 -90 29 -83 43 -155 43 -217 0 -57 -2 -63
-21 -63 -26 0 -89 29 -89 41 0 5 -15 16 -32 25 -25 13 -55 17 -128 15 -52 -1
-99 -6 -104 -12 -6 -5 6 -9 32 -9 61 0 57 -26 -5 -33 -49 -5 -66 4 -56 30 6
14 1 13 -81 -22 -36 -15 -37 -17 -20 -31 18 -14 18 -14 0 -29 -11 -8 -28 -15
-38 -15 -10 0 -18 -6 -18 -14 0 -14 -104 -26 -234 -26 -62 0 -73 3 -98 27 -15
15 -28 32 -28 39 0 32 -242 70 -254 39 -6 -18 80 -30 99 -15 9 7 26 9 44 5 33
-7 52 -26 33 -33 -8 -2 -8 -8 0 -22 9 -13 20 -17 48 -13 32 5 42 1 73 -31 31
-30 37 -45 43 -96 9 -78 27 -67 22 14 l-3 61 58 9 c34 5 76 5 100 0 l42 -9 6
-58 c4 -32 11 -63 17 -69 8 -8 10 2 6 38 -5 36 -2 53 7 61 14 11 89 24 139 24
48 0 235 -19 251 -26 9 -3 47 6 84 20 77 29 95 23 96 -29 0 -29 1 -27 19 19
17 43 26 53 67 72 l48 22 22 -22 c18 -18 23 -37 27 -107 5 -77 3 -90 -20 -140
-25 -53 -69 -207 -81 -280 -6 -34 -88 -181 -105 -188 -4 -2 -8 -11 -8 -20 0
-9 -18 -46 -40 -82 -52 -86 -140 -259 -140 -275 0 -7 -29 -40 -64 -73 -49 -45
-78 -64 -118 -76 -111 -32 -162 -38 -272 -33 -127 6 -203 28 -278 83 -52 39
-128 124 -128 145 0 27 -62 144 -91 174 -30 30 -139 223 -139 247 0 23 -33 48
-66 48 -25 0 -39 8 -63 36 -30 37 -61 42 -61 9 0 -15 -22 -46 -52 -74 -22 -19
-23 -37 -4 -44 12 -5 12 -12 -4 -44 -10 -21 -27 -47 -39 -57 -19 -17 -21 -18
-27 -2 -4 10 -4 48 -1 86 3 37 3 71 0 74 -7 7 -33 -40 -39 -69 -2 -11 -9 -45
-15 -75 -6 -30 -15 -71 -19 -90 -5 -19 -17 -73 -26 -120 -9 -47 -22 -91 -28
-98 -15 -15 -42 -7 -51 16 -10 28 -25 262 -26 415 0 116 -3 147 -13 147 -15 0
-28 -53 -21 -85 2 -11 4 -20 6 -20 1 0 3 -10 4 -22 2 -16 -3 -23 -16 -23 -24
0 -26 3 -45 114 -15 89 -15 99 -1 114 13 12 19 13 31 3 13 -11 15 -9 13 18 -2
29 -4 31 -34 25 -34 -6 -40 -1 -46 41 -1 11 -6 25 -9 30 -11 17 -13 156 -4
208 7 40 6 47 -8 47 -8 0 -22 10 -30 23 -11 18 -12 41 -3 132 16 169 14 406
-5 500 -5 28 -10 55 -10 60 -1 38 24 368 33 448 7 53 10 99 7 102 -13 13 -47
-259 -47 -380 -1 -79 -20 -74 -22 5 l0 45 -14 -50 c-8 -27 -14 -62 -15 -76 0
-15 -7 -43 -15 -62 -17 -42 -19 -61 -5 -52 6 3 10 0 10 -8 0 -8 -7 -18 -15
-21 -12 -4 -14 -14 -9 -41 4 -23 2 -35 -5 -35 -6 0 -17 -13 -26 -30 -18 -34
-14 -38 12 -11 22 23 78 37 88 21 4 -6 -2 -25 -12 -43 -22 -36 -40 -121 -48
-219 -3 -36 -9 -77 -13 -90 -5 -12 -7 -54 -6 -93 3 -54 -1 -77 -16 -101 l-18
-32 35 5 34 6 -7 -39 c-3 -21 -11 -45 -17 -53 -6 -7 -10 -39 -10 -71 2 -62
-15 -94 -36 -68 -6 7 -24 29 -41 49 -16 20 -30 44 -30 53 0 9 -8 16 -19 16
-10 0 -22 7 -25 16 -4 11 -14 15 -31 12 -27 -6 -61 21 -37 29 6 3 9 10 5 16
-4 7 0 8 13 3 39 -15 74 -19 74 -7 0 6 -13 11 -30 11 -18 0 -42 11 -64 31 -31
26 -35 35 -32 72 1 23 -4 53 -10 67 -7 14 -20 84 -29 155 -9 72 -27 216 -40
320 -14 105 -32 262 -41 349 -16 169 -33 222 -77 250 -12 7 -74 19 -137 25
-129 12 -150 24 -150 86 0 46 -9 65 -30 65 -17 0 -28 33 -31 105 -1 17 -5 1
-9 -35 -4 -36 -5 -89 -2 -117 4 -43 8 -53 23 -53 11 0 19 -7 19 -15 0 -8 -7
-15 -15 -15 -8 0 -15 5 -15 10 0 16 -14 12 -39 -12 -21 -19 -24 -20 -33 -5 -7
13 -23 17 -67 17 -69 0 -100 20 -131 83 -47 96 -72 117 -30 26 35 -79 20 -139
-36 -139 -13 0 -24 -4 -24 -10 0 -5 5 -10 11 -10 5 0 7 -5 3 -12 -6 -9 -9 -9
-12 0 -2 7 -15 12 -30 12 -14 0 -40 5 -58 12 -27 9 -37 9 -58 -5 -16 -11 -35
-15 -51 -11 -19 5 -25 2 -25 -11 0 -9 4 -14 9 -10 5 3 11 -2 13 -12 3 -16 4
-16 20 0 10 11 19 13 23 7 3 -6 17 -7 30 -4 13 3 32 1 42 -5 14 -8 15 -11 3
-11 -8 -1 8 -10 35 -21 37 -15 65 -19 107 -16 85 7 90 -1 90 -165 l0 -133 -42
-14 c-32 -10 -51 -11 -79 -3 -20 6 -58 13 -84 16 -46 6 -49 5 -58 -23 -6 -17
-24 -36 -42 -45 -38 -18 -70 -53 -57 -61 17 -10 11 -25 -9 -25 -24 0 -31 -10
-36 -49 -3 -30 -3 -30 20 -15 13 8 28 28 35 44 7 17 19 30 27 30 8 0 28 8 44
17 24 14 34 15 62 5 18 -7 67 -12 108 -12 82 0 155 -27 196 -71 27 -29 61
-108 69 -158 5 -31 11 -39 37 -47 32 -9 32 -9 31 -74 -2 -96 -15 -142 -44
-157 -17 -8 -30 -31 -46 -80 -13 -37 -23 -80 -24 -94 0 -18 -13 -38 -39 -62
-45 -40 -99 -53 -187 -44 -31 3 -54 2 -54 -4 0 -5 4 -9 8 -9 5 0 14 -11 20
-25 37 -80 -16 -90 -89 -16 -43 42 -49 54 -51 92 -1 24 -2 58 -3 74 -2 37 -67
131 -97 141 -22 7 -38 -9 -38 -38 0 -10 -5 -18 -11 -18 -6 0 -9 -6 -6 -14 3
-8 -3 -22 -14 -32 -10 -9 -19 -27 -19 -39 0 -30 -26 -53 -42 -37 -17 17 -38
15 -38 -3 0 -8 -6 -25 -12 -38 -7 -12 -14 -23 -15 -25 -3 -7 -58 33 -72 52 -8
11 -15 31 -15 45 -1 18 -7 27 -21 29 -44 8 -60 66 -26 96 25 23 46 16 96 -32
22 -21 48 -41 58 -45 26 -10 24 63 -3 86 -14 11 -20 29 -20 56 0 44 -13 59
-35 41 -14 -12 -35 -6 -35 9 0 4 11 13 25 19 21 10 24 16 18 44 -9 51 -22 69
-23 31 0 -68 -17 -77 -74 -40 -41 26 -50 43 -66 122 -7 33 -16 74 -20 90 -4
17 -13 64 -20 105 -13 81 -34 140 -49 140 -13 0 -31 -33 -31 -57 0 -11 8 -28
18 -39 11 -13 18 -39 20 -81 3 -62 3 -63 -22 -63 -19 0 -27 7 -32 25 l-6 26
-22 -23 c-17 -18 -20 -33 -18 -71 3 -28 -1 -54 -8 -62 -10 -12 -9 -27 4 -73
31 -104 31 -104 78 -100 25 2 43 -2 45 -9 5 -14 -28 -19 -240 -37 -121 -10
-160 -17 -170 -29 -8 -11 -37 -18 -86 -23 -66 -6 -74 -5 -68 10 4 9 2 16 -4
16 -6 0 -9 7 -7 16 4 23 66 54 106 54 21 0 35 6 39 16 8 22 -16 36 -52 30 -16
-3 -120 -17 -230 -31 -187 -25 -224 -26 -268 -9 -12 4 -17 2 -15 -6 3 -14 -56
-32 -79 -23 -7 3 -13 15 -13 27 0 11 -7 30 -15 40 -20 26 -20 96 -1 96 8 0 22
10 30 22 14 20 18 20 43 9 64 -30 64 -30 49 -78 -6 -18 -3 -23 9 -23 9 0 14 4
11 9 -3 5 0 11 8 14 9 4 12 14 9 25 -3 14 1 22 14 26 10 3 24 15 31 26 11 19
10 20 -26 20 -32 0 -41 5 -51 26 -12 27 -1 54 23 54 10 0 34 44 52 95 4 11 14
28 22 38 9 9 16 38 16 65 l1 47 71 6 c96 9 136 19 131 32 -2 7 -17 13 -33 15
-67 6 -74 11 -74 46 0 20 -8 40 -19 50 -20 18 -22 45 -7 79 9 19 -9 47 -30 47
-30 0 -12 18 24 24 59 9 190 7 197 -4 3 -5 11 -38 16 -72 14 -87 31 -110 26
-35 -3 45 0 60 12 67 14 8 14 9 -1 10 -11 0 -18 8 -18 20 0 24 18 27 200 35
95 5 142 11 159 22 12 8 31 13 42 10 10 -3 26 1 36 8 16 12 14 14 -24 21 -36
5 -43 10 -43 30 0 12 -5 26 -11 30 -6 3 -9 15 -6 25 5 18 -3 19 -148 19 -148
0 -187 8 -148 29 14 7 18 21 17 60 -1 28 -2 55 -3 59 0 5 -19 18 -41 31 -22
12 -40 25 -40 28 0 3 18 3 40 0 22 -3 40 -2 40 1 -1 16 -19 34 -29 28 -15 -10
-91 31 -91 49 0 22 53 19 75 -5 17 -19 18 -19 37 6 14 17 17 29 10 37 -5 7
-12 37 -15 67 -6 46 -12 59 -38 81 -38 31 -32 49 19 49 51 0 28 18 -28 22 -32
2 -45 7 -45 18 0 18 104 27 338 29 l158 1 -1 -47 c-3 -71 -2 -73 21 -73 18 0
20 -4 14 -22 -10 -30 -7 -177 4 -203 36 -85 43 -105 38 -117 -2 -7 2 -25 9
-40 12 -22 11 -27 -1 -32 -25 -9 -18 -36 9 -36 19 0 25 6 29 33 3 17 12 68 21
112 9 44 16 103 16 132 0 28 4 54 10 58 5 3 6 13 3 22 -5 12 -2 15 8 11 58
-22 59 -22 59 21 0 29 6 44 21 55 l21 14 -21 14 c-11 7 -21 21 -21 30 0 23
-45 25 -54 3 -8 -21 -20 -19 -51 8 -17 14 -24 28 -20 38 5 14 28 17 133 21
117 4 129 3 146 -15 19 -20 20 -20 27 2 8 20 15 21 114 21 58 0 105 -3 105 -7
0 -5 3 -18 6 -30 5 -18 1 -22 -23 -25 l-28 -4 33 -9 c36 -11 42 -25 17 -40
-11 -7 -18 -6 -25 5 -5 8 -12 12 -15 8 -17 -16 89 -154 115 -150 21 3 46 -23
30 -33 -6 -4 -17 -4 -25 -1 -16 6 -19 -3 -9 -28 3 -9 12 -16 18 -16 7 0 31
-16 54 -36 l42 -36 0 28 c0 31 -77 194 -96 201 -19 7 -4 45 16 40 9 -2 24 1
33 8 15 11 10 13 -28 13 -57 2 -68 8 -62 38 3 17 -1 25 -14 29 -11 4 -19 15
-19 26 0 15 7 19 34 19 36 0 58 -26 28 -32 -13 -3 -12 -5 6 -10 15 -4 22 -2
22 8 0 22 44 34 124 34 39 0 77 5 82 10 7 7 181 13 475 17 255 3 466 8 469 11
3 2 387 2 854 -2 766 -6 852 -8 868 -23z m1128 7 c8 -15 8 -37 1 -73 -5 -29
-12 -104 -16 -169 -7 -123 -9 -147 -20 -243 -17 -149 -37 -270 -49 -294 -7
-14 -19 -73 -25 -130 -15 -129 -35 -179 -67 -173 -13 2 -30 -4 -43 -17 -17
-17 -21 -33 -21 -92 0 -56 -4 -77 -21 -100 -20 -28 -22 -65 -8 -106 5 -13 4
-13 -56 -13 -34 0 -47 4 -52 18 -4 9 -12 22 -19 27 -20 17 -27 65 -9 71 12 5
14 15 9 39 -3 19 -1 35 5 39 6 4 11 14 11 23 0 8 11 24 24 34 24 19 24 21 9
48 -16 27 -16 30 5 56 16 19 22 42 22 74 0 26 5 52 11 58 6 6 15 37 19 69 12
81 38 196 49 214 5 9 12 36 16 60 4 25 13 55 22 68 8 13 13 31 11 41 -2 10 4
26 12 36 14 17 25 75 34 184 3 33 11 58 20 63 20 11 40 101 31 144 -8 45 7 64
51 64 23 0 37 -6 44 -20z m-663 -11 c5 -18 11 -20 39 -14 41 7 44 -5 14 -71
-12 -24 -18 -49 -15 -54 3 -5 -3 -28 -14 -52 -11 -24 -24 -63 -31 -88 -6 -25
-16 -58 -22 -75 -5 -16 -13 -48 -18 -70 -4 -22 -17 -71 -29 -110 -12 -38 -27
-88 -32 -110 -6 -22 -17 -60 -24 -85 -8 -25 -15 -56 -17 -70 -5 -41 -31 -34
-77 20 -43 51 -43 52 -31 93 6 23 17 71 24 107 7 36 23 92 35 125 12 33 26 76
31 95 17 71 46 143 79 195 11 17 20 38 20 48 1 10 8 29 17 43 19 28 12 43 -10
23 -54 -49 -62 -49 -48 2 6 25 14 35 33 37 13 2 28 10 32 18 12 21 38 17 44
-7z m-360 -31 c-3 -7 -5 -2 -5 12 0 14 2 19 5 13 2 -7 2 -19 0 -25z m-4267 -2
c0 -2 3 -11 6 -20 9 -24 -23 -20 -36 4 -9 17 -8 20 10 20 11 0 20 -2 20 -4z
m4257 -73 c-3 -10 -5 -2 -5 17 0 19 2 27 5 18 2 -10 2 -26 0 -35z m-4670 4 c4
-8 16 -16 26 -20 24 -9 22 -37 -3 -37 -11 0 -29 9 -40 20 -11 11 -25 20 -30
20 -15 0 12 29 27 30 7 0 16 -6 20 -13z m443 -21 c0 -3 -4 -8 -10 -11 -5 -3
-10 -1 -10 4 0 6 5 11 10 11 6 0 10 -2 10 -4z m680 -34 c0 -13 7 -18 22 -18
14 1 24 -6 26 -16 4 -20 -32 -26 -43 -7 -4 6 -13 8 -20 5 -18 -6 -39 20 -31
39 8 22 46 19 46 -3z m-1114 -31 c-3 -5 -15 -7 -26 -4 -28 7 -25 13 6 13 14 0
23 -4 20 -9z m478 -33 c22 -31 20 -58 -3 -58 -21 0 -31 19 -31 56 0 30 14 31
34 2z m-486 -25 c5 -17 -48 -37 -61 -24 -15 15 12 43 36 39 11 -2 22 -9 25
-15z m72 -28 c11 -13 7 -15 -23 -15 -28 0 -35 3 -31 15 4 8 14 15 24 15 10 0
23 -7 30 -15z m4594 -10 c-4 -8 -8 -15 -10 -15 -2 0 -4 7 -4 15 0 8 4 15 10
15 5 0 7 -7 4 -15z m-4615 -31 c1 -1 0 -7 -4 -13 -7 -13 -45 4 -45 20 0 9 37
4 49 -7z m-16 -69 c8 -20 -3 -24 -51 -18 -40 5 -50 12 -35 26 13 14 81 7 86
-8z m87 -25 c0 -13 -7 -20 -19 -20 -22 0 -35 15 -26 30 12 19 45 11 45 -10z
m5680 -34 c0 -15 -40 -49 -48 -41 -7 7 27 55 38 55 6 0 10 -6 10 -14z m-5786
-52 c10 -25 1 -27 -19 -4 -15 17 -16 20 -3 20 9 0 19 -7 22 -16z m2106 1 c14
-16 5 -54 -9 -39 -14 15 -23 54 -13 54 5 0 15 -7 22 -15z m1973 -216 c-6 -6
-19 7 -32 31 l-22 40 23 9 c21 8 24 5 31 -31 5 -23 5 -44 0 -49z m53 44 c-10
-10 -19 5 -10 18 6 11 8 11 12 0 2 -7 1 -15 -2 -18z m-1716 2 c0 -8 -2 -15 -4
-15 -2 0 -6 7 -10 15 -3 8 -1 15 4 15 6 0 10 -7 10 -15z m1519 -47 c20 -35 12
-42 -39 -33 -78 13 -93 69 -17 63 33 -2 45 -9 56 -30z m1885 19 c9 -9 15 -63
20 -172 5 -138 11 -559 7 -591 0 -6 -30 -44 -66 -84 -36 -40 -65 -79 -65 -86
0 -18 32 -34 71 -34 27 0 30 2 19 15 -7 8 -19 15 -26 15 -20 0 -17 34 5 54 11
10 30 16 43 14 20 -3 24 -10 29 -52 4 -42 3 -50 -13 -54 -22 -5 -22 -11 -3
-32 21 -23 9 -79 -16 -81 -11 -1 -25 -2 -31 -3 -7 -1 -13 8 -13 18 0 24 -48
61 -70 52 -9 -3 -14 -10 -10 -16 8 -12 -12 -50 -27 -50 -6 0 -8 9 -5 21 5 18
2 20 -19 15 -32 -8 -41 14 -20 47 9 13 15 39 14 58 -1 19 6 75 14 124 9 50 21
131 28 180 6 50 17 133 25 185 8 52 19 138 25 190 6 52 20 115 30 140 10 25
22 66 25 93 7 51 10 54 29 34z m-74 -16 c0 -17 -18 -21 -24 -6 -3 9 0 15 9 15
8 0 15 -4 15 -9z m-3773 -27 c2 -6 -16 -11 -46 -13 -37 -1 -50 2 -55 14 -5 14
2 16 46 13 28 -2 53 -8 55 -14z m295 -7 c10 -11 11 -45 6 -163 -8 -158 -24
-239 -51 -259 -11 -7 -17 -26 -17 -48 0 -46 -16 -87 -34 -87 -7 0 -23 8 -35
18 l-21 17 34 160 c18 88 35 167 38 175 3 8 12 49 19 90 6 41 19 83 27 93 18
20 17 20 34 4z m1554 4 c-3 -5 8 -11 24 -15 21 -4 30 -11 30 -26 0 -25 -18
-25 -47 -1 -24 20 -31 51 -12 51 5 0 8 -4 5 -9z m-1795 -22 c17 -9 20 -17 15
-57 -3 -26 -11 -65 -17 -87 -5 -22 -19 -78 -30 -124 -24 -101 -24 -101 -54
-101 -21 0 -24 6 -30 53 -5 40 -2 73 13 128 11 41 23 97 27 125 5 39 12 54 28
62 28 14 25 14 48 1z m-1966 -68 c3 -5 1 -12 -5 -16 -5 -3 -10 1 -10 9 0 18 6
21 15 7z m5645 -6 c0 -8 -7 -15 -15 -15 -8 0 -15 7 -15 15 0 8 7 15 15 15 8 0
15 -7 15 -15z m-5640 -131 c0 -8 -5 -12 -10 -9 -6 4 -8 11 -5 16 9 14 15 11
15 -7z m3718 -51 c-3 -19 -78 -45 -96 -34 -17 10 0 28 38 39 51 15 62 14 58
-5z m-1436 -43 c13 -60 14 -313 1 -317 -9 -3 -9 -12 -2 -29 5 -14 9 -27 9 -30
0 -8 -37 -4 -63 9 -25 11 -27 17 -27 72 0 68 25 291 36 318 11 29 37 15 46
-23z m3308 20 c0 -11 -7 -20 -15 -20 -8 0 -15 9 -15 20 0 11 7 20 15 20 8 0
15 -9 15 -20z m-2717 -78 c-3 -12 -9 -22 -14 -22 -5 0 -3 11 3 25 13 30 20 28
11 -3z m-2813 -13 c9 -15 8 -24 -1 -35 -18 -22 -26 -17 -31 21 -5 40 14 48 32
14z m-909 -13 c27 -11 30 -16 17 -21 -9 -4 -26 -2 -37 4 -11 6 -25 10 -32 9
-6 -2 -14 3 -16 10 -6 16 27 15 68 -2z m81 -151 c0 -5 -5 -11 -11 -13 -6 -2
-11 4 -11 13 0 9 5 15 11 13 6 -2 11 -8 11 -13z m518 -35 c0 -5 -4 -10 -10
-10 -5 0 -10 5 -10 10 0 6 5 10 10 10 6 0 10 -4 10 -10z m-990 -19 c0 -25 -36
-37 -56 -20 -14 12 -14 14 2 26 27 19 54 16 54 -6z m3297 4 c3 -9 3 -19 -1
-22 -7 -7 -36 16 -36 28 0 15 30 10 37 -6z m3463 5 c0 -5 -4 -10 -9 -10 -6 0
-13 5 -16 10 -3 6 1 10 9 10 9 0 16 -4 16 -10z m-230 -89 c0 -26 -27 -48 -42
-33 -9 9 -7 17 7 32 23 25 35 26 35 1z m-83 -20 c3 -11 15 -22 28 -25 32 -8
43 -45 19 -62 -11 -7 -27 -20 -36 -30 -21 -21 -85 -21 -106 0 -25 24 -3 52 37
48 32 -2 38 7 21 38 -5 10 -7 26 -4 34 9 22 35 20 41 -3z m243 -16 c-7 -8 -16
-15 -21 -15 -13 0 -11 24 3 38 18 18 35 -3 18 -23z m-4240 -180 c0 -8 -7 -15
-15 -15 -8 0 -15 7 -15 15 0 8 7 15 15 15 8 0 15 -7 15 -15z m-2231 -4 c11 -7
10 -11 -7 -20 -15 -8 -23 -7 -31 3 -19 22 9 35 38 17z m-59 -36 c0 -8 -6 -15
-14 -15 -17 0 -28 14 -19 24 12 12 33 6 33 -9z m2145 4 c8 -12 -22 -49 -40
-49 -15 0 -25 -22 -25 -53 0 -18 -2 -19 -11 -7 -8 12 -9 10 -7 -10 3 -22 7
-25 36 -22 24 3 32 0 32 -12 0 -10 -9 -16 -23 -16 -13 0 -28 -5 -35 -12 -20
-20 -159 -37 -195 -24 -23 8 -31 8 -34 -1 -3 -7 -20 -13 -38 -13 -35 0 -53
-14 -35 -25 6 -4 16 -3 23 3 7 5 56 10 110 10 91 2 97 0 97 -18 0 -15 -7 -20
-27 -21 -33 -1 -107 -40 -104 -54 3 -15 121 -8 256 16 193 34 195 34 195 16 0
-10 -12 -18 -32 -22 -18 -3 -87 -14 -153 -25 -66 -11 -192 -29 -280 -40 -88
-11 -194 -25 -235 -30 -41 -6 -131 -17 -200 -25 -69 -8 -201 -24 -295 -35
-228 -27 -444 -47 -450 -42 -12 13 12 22 58 23 29 0 90 6 137 13 64 9 84 15
83 26 -1 8 24 43 55 78 l57 63 125 15 c69 9 170 21 225 28 61 8 105 10 111 4
9 -6 7 -22 -7 -61 -24 -67 -24 -67 10 -67 53 0 62 8 55 51 -5 28 -2 46 10 65
13 18 14 29 6 38 -5 8 -8 20 -5 28 4 9 -1 18 -12 22 -10 3 -24 9 -31 12 -8 4
-10 0 -6 -10 4 -12 0 -16 -15 -16 -12 0 -21 6 -21 13 0 6 -12 23 -25 36 l-25
23 0 -26 c0 -30 0 -29 -34 -16 -31 11 -35 -3 -9 -32 9 -10 13 -21 9 -25 -10
-10 -39 10 -51 35 -6 14 -19 22 -34 22 -17 0 -21 -3 -13 -12 5 -7 13 -23 16
-35 11 -34 -21 -19 -40 19 -13 24 -13 32 -2 45 11 14 10 16 -13 10 -14 -4 -74
-9 -135 -13 -103 -6 -110 -5 -128 15 -26 29 -59 23 369 66 77 8 185 19 240 25
55 6 168 17 251 24 83 7 160 18 170 24 24 15 81 15 89 1z m-878 -24 c8 -22 5
-23 -70 -31 -63 -6 -67 -6 -67 14 0 23 17 28 88 31 30 1 44 -4 49 -14z m-1258
-28 c14 -17 4 -27 -25 -27 -17 0 -21 4 -17 20 6 23 26 26 42 7z m866 -28 c45
-21 54 -32 35 -44 -5 -3 -10 -20 -10 -37 0 -24 -10 -41 -47 -75 -50 -45 -54
-47 -116 -58 -28 -4 -37 -10 -33 -21 7 -18 -47 -80 -62 -70 -13 8 -32 70 -32
105 0 14 10 35 22 48 l21 23 -25 0 c-22 0 -26 6 -32 39 -9 60 -1 71 53 71 26
0 53 -6 59 -12 10 -10 18 -6 38 20 31 39 64 42 129 11z m4990 -19 c9 -27 -1
-40 -31 -40 -21 0 -23 -3 -14 -19 19 -36 13 -43 -32 -38 -82 10 -138 29 -138
48 0 11 10 20 29 24 16 3 37 15 47 26 25 28 130 28 139 -1z m-5917 4 c36 -10
25 -24 -18 -24 -29 0 -40 4 -40 15 0 16 20 19 58 9z m56 -30 c10 -25 7 -34 -9
-34 -9 0 -15 9 -15 25 0 28 15 34 24 9z m6719 -21 c17 -10 5 -33 -18 -33 -21
0 -45 24 -45 45 0 5 47 -4 63 -12z m-5528 -48 c41 -42 33 -52 -47 -60 -54 -5
-68 -10 -53 -16 14 -6 8 -7 -17 -3 -31 5 -38 3 -38 -10 0 -9 -7 -16 -15 -16
-19 0 -42 53 -25 58 5 2 16 9 23 16 12 12 96 32 125 29 8 -1 11 5 8 13 -8 22
11 16 39 -11z m70 -5 c17 -34 18 -40 6 -40 -16 0 -41 31 -41 51 0 28 17 23 35
-11z m305 -25 c0 -9 -9 -15 -25 -15 -24 0 -32 10 -18 23 12 13 43 7 43 -8z
m-606 -10 c-6 -16 -24 -21 -24 -7 0 11 11 22 21 22 5 0 6 -7 3 -15z m1166 -1
c0 -17 -22 -14 -28 4 -2 7 3 12 12 12 9 0 16 -7 16 -16z m932 4 c20 -17 43
-144 42 -231 l-1 -68 123 7 c85 4 124 3 124 -4 0 -12 -45 -16 -300 -32 -154
-9 -316 -21 -475 -34 -27 -3 -59 -1 -70 3 -16 7 -14 9 15 14 19 3 77 9 128 13
51 4 95 11 98 16 3 5 -13 37 -35 72 -57 88 -54 121 8 75 15 -11 48 -23 72 -26
24 -3 65 -17 92 -30 l47 -24 48 52 c64 69 65 72 47 124 -20 61 -19 85 3 85 10
0 25 -6 34 -12z m-2743 -32 c8 -10 9 -16 1 -21 -13 -8 -30 3 -30 21 0 18 14
18 29 0z m2076 -80 c36 -22 40 -28 40 -68 1 -43 18 -114 38 -155 6 -13 8 -25
6 -27 -2 -2 -58 -7 -124 -11 -66 -3 -166 -9 -223 -13 -108 -7 -142 -2 -142 22
0 15 43 38 128 66 75 25 82 25 108 -7 l22 -28 49 46 c27 26 59 50 71 53 22 7
22 8 -7 50 -17 24 -33 55 -37 69 -8 35 16 36 71 3z m-1445 -9 c0 -40 -22 -58
-80 -66 -30 -5 -68 -16 -85 -25 -32 -17 -135 -22 -135 -6 0 20 108 104 145
112 11 3 50 5 88 6 64 2 67 1 67 -21z m2930 -97 c0 -5 -4 -10 -9 -10 -6 0 -13
5 -16 10 -3 6 1 10 9 10 9 0 16 -4 16 -10z m138 -8 c2 -7 -6 -12 -17 -12 -21
0 -27 11 -14 24 9 9 26 2 31 -12z m3480 -37 c-3 -3 -9 2 -12 12 -6 14 -5 15 5
6 7 -7 10 -15 7 -18z m-3508 9 c0 -11 -34 -33 -52 -34 -20 0 -32 16 -23 30 7
11 75 14 75 4z m-40 -66 c0 -9 3 -9 12 0 19 19 28 14 28 -12 0 -14 4 -27 9
-30 4 -3 6 -17 3 -31 -3 -20 -10 -25 -26 -23 -26 4 -34 38 -12 53 14 11 13 13
-9 23 -25 11 -34 32 -15 32 6 0 10 -5 10 -12z m-1596 -107 c11 -17 -19 -28
-86 -33 -42 -4 -71 -2 -78 6 -8 8 9 14 67 22 43 6 81 12 85 13 4 0 9 -3 12 -8z
m-190 -20 c8 -12 -21 -34 -34 -26 -17 11 -11 35 9 35 11 0 22 -4 25 -9z m-804
-36 c0 -27 -4 -35 -18 -35 -10 0 -78 -5 -152 -11 -123 -10 -135 -9 -147 7 -7
9 -10 21 -7 25 8 14 102 11 108 -3 2 -7 4 -2 3 12 -2 23 2 26 48 31 28 3 76 7
108 7 l57 2 0 -35z m600 15 c0 -5 -4 -10 -10 -10 -5 0 -10 5 -10 10 0 6 5 10
10 10 6 0 10 -4 10 -10z m-1810 -10 c0 -5 -7 -10 -16 -10 -8 0 -12 5 -9 10 3
6 10 10 16 10 5 0 9 -4 9 -10z m3460 1 c0 -8 -180 -25 -188 -17 -2 3 -1 9 3
15 7 13 185 15 185 2z m-183 -33 c4 -7 9 -30 10 -50 3 -42 -15 -58 -64 -58
-15 0 -35 -5 -43 -11 -11 -8 -6 -9 23 -5 20 2 37 1 37 -4 0 -5 12 -10 27 -12
31 -4 42 -25 17 -35 -11 -4 -23 1 -35 15 -11 14 -28 22 -48 22 -29 0 -31 -3
-31 -35 0 -29 -4 -35 -22 -35 -12 0 -19 3 -15 6 8 8 -27 41 -53 49 -13 4 -19
12 -16 21 6 17 2 17 -44 4 -66 -19 -295 -40 -500 -46 -218 -6 -643 -32 -1260
-79 -368 -28 -492 -35 -503 -28 -6 4 -40 9 -76 12 -62 6 -66 7 -66 31 0 29
-14 26 320 54 99 9 232 20 295 26 63 5 207 17 320 25 113 8 257 20 320 25 63
6 205 17 315 25 110 9 252 20 315 25 106 9 408 31 643 47 54 3 100 10 103 15
8 12 22 10 31 -4z m147 -14 c30 -12 16 -23 -36 -31 -68 -10 -68 -10 -68 2 0 6
15 15 33 22 38 14 50 15 71 7z m267 -54 c89 -72 148 -144 155 -191 6 -36 9
-39 39 -39 18 0 44 -9 58 -20 14 -11 30 -20 35 -20 12 0 22 -24 22 -51 0 -20
-24 -26 -35 -9 -3 6 -14 10 -24 10 -19 0 -54 34 -64 62 -4 10 -12 15 -20 12
-8 -3 -31 5 -52 17 -39 23 -108 29 -170 14 -26 -6 -33 -2 -53 25 -29 39 -25
64 11 68 23 3 28 8 25 25 -3 19 -8 22 -45 19 -33 -2 -43 1 -43 13 0 9 12 18
31 22 27 5 30 9 26 32 -6 30 8 61 28 61 7 0 42 -22 76 -50z m-3710 25 c0 -6
11 -16 25 -23 16 -8 23 -19 20 -28 -3 -8 -3 -21 1 -30 4 -12 9 -9 19 15 12 28
44 44 44 22 0 -6 28 -7 68 -4 l67 5 17 -36 c12 -24 25 -36 38 -36 22 0 27 -24
8 -39 -48 -37 -91 -81 -81 -81 17 0 63 -48 63 -65 0 -11 -13 -15 -50 -15 -28
0 -50 5 -50 10 0 6 -10 2 -22 -10 -12 -11 -25 -20 -30 -20 -4 0 -8 -5 -8 -10
0 -6 21 -8 56 -4 73 9 70 -3 -17 -74 -123 -100 -159 -120 -234 -132 -112 -17
-270 -58 -319 -82 -25 -12 -49 -18 -53 -14 -5 4 -9 39 -10 76 -1 62 1 70 20
76 12 4 23 2 25 -4 3 -11 58 3 77 19 13 12 48 11 40 -1 -11 -18 19 -10 74 20
30 17 59 30 64 30 6 0 32 14 59 31 37 24 56 30 78 26 16 -4 32 -2 35 3 3 5 21
6 40 3 39 -6 46 8 22 41 -11 15 -23 17 -78 13 -59 -5 -127 -23 -139 -38 -9
-12 -80 -49 -94 -49 -7 0 -31 -13 -53 -29 -64 -47 -155 -70 -112 -29 47 45
109 88 128 88 22 0 91 39 91 53 0 10 -44 9 -55 -2 -6 -5 -44 -12 -85 -14 -41
-3 -92 -9 -112 -12 -35 -7 -38 -5 -39 16 0 13 -1 62 -2 109 l-2 85 28 -3 c22
-2 27 1 27 18 0 12 -4 18 -10 15 -5 -3 -10 1 -10 9 0 29 142 1 154 -30 3 -8
15 -14 26 -14 12 0 35 -13 51 -30 30 -30 66 -31 54 -2 -3 8 0 21 6 28 9 11 7
14 -10 14 -14 0 -21 6 -21 20 0 24 26 27 50 5 19 -17 50 -10 50 10 0 7 12 22
26 33 19 13 27 29 28 50 0 18 5 31 9 29 5 -1 8 -7 8 -12z m-111 -24 c0 -11 -4
-22 -9 -25 -12 -8 -34 21 -26 34 11 17 35 11 35 -9z m4131 -4 c-1 -12 -15 -9
-19 4 -3 6 1 10 8 8 6 -3 11 -8 11 -12z m-4261 -62 c7 -9 10 -19 6 -22 -8 -9
-38 9 -44 25 -5 17 23 15 38 -3z m3298 -47 c3 -13 -3 -18 -22 -18 -27 0 -41
14 -31 31 10 16 49 6 53 -13z m-253 -18 c0 -10 -12 -16 -32 -18 -28 -3 -33 0
-33 18 0 18 5 21 33 18 20 -2 32 -8 32 -18z m121 5 c4 -8 12 -15 20 -15 18 0
18 -19 0 -26 -10 -4 -12 -15 -6 -42 4 -20 10 -54 13 -74 5 -35 4 -38 -19 -38
-18 0 -25 5 -23 18 2 16 -5 41 -20 72 -10 22 -2 48 17 53 10 3 7 5 -9 6 -34 1
-39 8 -25 36 12 28 43 33 52 10z m-242 -4 c10 -15 -21 -33 -51 -29 -17 2 -29
10 -31 21 -3 14 4 17 37 17 22 0 42 -4 45 -9z m-136 -18 c-2 -9 -14 -20 -28
-24 -23 -6 -23 -8 -2 -13 36 -9 91 -43 114 -69 36 -42 35 -47 -7 -47 -24 0
-37 6 -45 20 -6 12 -21 20 -36 20 -21 0 -24 3 -18 26 6 25 5 25 -30 19 -20 -4
-43 -4 -52 -1 -15 6 -15 9 4 26 12 11 25 20 31 20 5 0 7 9 4 20 -5 17 0 20 32
20 29 0 36 -3 33 -17z m1729 1 c3 -9 1 -19 -6 -23 -6 -4 -10 -18 -9 -31 4 -35
-29 -40 -38 -6 -10 40 3 76 27 76 11 0 22 -7 26 -16z m-1994 -12 c20 -22 13
-32 -23 -32 -28 0 -55 -21 -43 -33 10 -11 43 -8 43 3 0 6 9 10 20 10 10 0 24
8 29 18 9 14 10 13 11 -10 0 -22 -5 -28 -23 -28 -12 0 -28 -9 -34 -19 -10 -17
-9 -20 13 -25 49 -13 13 -56 -47 -56 -34 0 -42 4 -64 40 -14 23 -36 45 -48 50
-12 4 -34 20 -49 34 -15 14 -30 26 -33 26 -3 0 -5 -16 -5 -35 0 -33 -2 -35
-35 -35 -28 0 -35 4 -35 20 0 13 -7 20 -20 20 -11 0 -20 4 -20 9 0 20 31 30
124 40 55 7 102 14 105 16 2 3 30 5 61 5 42 0 61 -5 73 -18z m145 6 c-11 -33
-88 -35 -88 -3 0 11 12 15 46 15 31 0 44 -4 42 -12z m292 -22 c0 -8 -8 -17
-17 -20 -10 -2 10 -4 45 -3 68 1 105 -17 55 -27 -15 -3 -55 -6 -88 -8 -56 -3
-60 -2 -63 20 -4 26 21 51 51 52 9 0 17 -6 17 -14z m490 -1 c0 -15 4 -26 29
-73 14 -27 7 -42 -20 -42 -12 0 -19 7 -19 19 0 11 -5 23 -11 27 -6 3 -9 15 -6
25 3 10 1 22 -4 25 -17 10 -9 34 11 34 11 0 20 -7 20 -15z m-127 -34 c4 -19 5
-37 0 -42 -15 -15 -42 13 -49 49 -6 31 -5 33 16 30 17 -2 26 -12 33 -37z
m-1377 -10 c-4 -6 -13 -11 -19 -11 -7 0 -17 -10 -22 -22 -11 -23 -35 -37 -35
-19 0 20 63 82 73 72 5 -5 6 -14 3 -20z m151 7 c-4 -12 -1 -28 5 -35 8 -10 6
-13 -10 -13 -33 0 -52 11 -52 29 0 23 19 41 43 41 15 0 18 -5 14 -22z m542
-18 c18 -17 39 -30 46 -30 14 0 27 -38 19 -52 -3 -4 -21 -8 -40 -8 -27 0 -34
4 -34 19 0 10 -7 21 -15 25 -8 3 -15 17 -15 31 0 14 -4 25 -10 25 -5 0 -10 5
-10 10 0 18 25 10 59 -20z m-829 -1 c0 -5 -10 -9 -21 -9 -18 0 -19 2 -9 15 12
15 30 12 30 -6z m-132 -12 c3 -13 -4 -17 -27 -17 -35 0 -39 7 -13 26 21 16 36
13 40 -9z m-156 -12 c0 -5 -5 -11 -11 -13 -6 -2 -11 4 -11 13 0 9 5 15 11 13
6 -2 11 -8 11 -13z m218 -5 c0 -5 -7 -10 -15 -10 -8 0 -15 5 -15 10 0 6 7 10
15 10 8 0 15 -4 15 -10z m587 -14 c-6 -18 -67 -20 -67 -2 0 8 8 16 18 18 26 6
53 -3 49 -16z m-749 2 c-7 -19 -38 -22 -38 -4 0 10 9 16 21 16 12 0 19 -5 17
-12z m-353 -36 c-8 -9 -25 20 -18 31 3 5 10 2 15 -7 6 -10 7 -20 3 -24z m2120
18 c0 -23 -32 -23 -45 0 -11 20 -9 21 17 18 17 -2 28 -9 28 -18z m323 3 c2 -9
-10 -13 -42 -13 -46 0 -70 15 -39 23 31 9 76 3 81 -10z m396 2 c11 -8 32 -15
46 -15 15 0 34 -8 43 -17 18 -21 31 -84 23 -116 -13 -53 -86 -93 -86 -47 0 11
-2 20 -4 20 -2 0 -12 3 -21 7 -14 5 -16 2 -10 -16 14 -44 -27 -18 -61 39 -38
63 -43 86 -16 75 46 -19 54 -19 50 6 -2 14 -14 29 -30 37 -16 7 -28 20 -28 28
0 19 68 18 94 -1z m-2664 1 c0 -3 -4 -8 -10 -11 -5 -3 -10 -1 -10 4 0 6 5 11
10 11 6 0 10 -2 10 -4z m730 -6 c0 -5 -2 -10 -4 -10 -3 0 -8 5 -11 10 -3 6 -1
10 4 10 6 0 11 -4 11 -10z m-160 -10 c0 -12 -28 -25 -36 -17 -9 9 6 27 22 27
8 0 14 -5 14 -10z m1074 1 c13 -21 -7 -41 -40 -41 -27 0 -34 4 -34 19 0 14 8
21 28 24 15 2 30 5 34 6 4 0 9 -3 12 -8z m-2259 -11 c-3 -5 -10 -10 -16 -10
-5 0 -9 5 -9 10 0 6 7 10 16 10 8 0 12 -4 9 -10z m1543 -13 c2 -10 -3 -17 -12
-17 -18 0 -29 16 -21 31 9 14 29 6 33 -14z m505 -14 c9 -21 19 -28 41 -28 35
0 43 -16 21 -39 -23 -23 -85 -22 -85 2 0 10 5 23 12 30 19 19 3 24 -39 13 -48
-14 -73 -14 -73 -1 0 5 18 13 39 16 22 4 42 13 45 20 9 22 26 16 39 -13z
m-675 0 c-2 -10 -10 -18 -18 -18 -8 0 -16 8 -18 18 -2 12 3 17 18 17 15 0 20
-5 18 -17z m440 -8 l23 -24 -25 -7 c-35 -8 -56 1 -56 25 0 17 11 28 30 30 3 0
15 -10 28 -24z m763 -2 c7 -20 5 -23 -20 -23 -35 0 -43 8 -30 32 13 25 39 20
50 -9z m-1921 7 c0 -12 -28 -25 -36 -17 -9 9 6 27 22 27 8 0 14 -5 14 -10z
m2070 -5 c0 -15 -43 -12 -48 3 -3 10 4 13 22 10 15 -2 26 -7 26 -13z m1466 7
c7 -4 25 -34 41 -67 37 -76 68 -129 104 -182 16 -23 29 -44 29 -48 0 -4 13
-25 28 -48 15 -23 34 -55 42 -72 8 -16 19 -33 24 -36 4 -4 12 -25 16 -49 6
-33 4 -43 -8 -47 -25 -10 -121 46 -139 81 -8 17 -26 43 -40 57 -13 15 -32 42
-41 60 -9 19 -23 35 -29 35 -26 3 -28 5 -13 14 12 8 12 10 -3 16 -18 6 -23 40
-9 62 5 7 3 38 -3 70 -19 89 -26 162 -18 162 4 0 13 -4 19 -8z m-3696 -32 c0
-11 -43 -14 -53 -3 -4 3 -2 12 4 19 12 15 49 2 49 -16z m1124 -3 c-7 -20 -34
-23 -34 -4 0 19 22 39 32 29 5 -5 6 -16 2 -25z m806 24 c0 -11 -25 -21 -56
-21 -15 0 -24 6 -24 15 0 11 11 15 40 15 22 0 40 -4 40 -9z m-2053 -38 l-2
-38 55 3 c30 2 65 10 77 18 30 19 43 18 43 -6 0 -11 -5 -20 -10 -20 -6 0 -16
-11 -22 -25 -11 -25 -38 -35 -38 -15 0 7 -29 10 -77 8 -56 -2 -77 -7 -75 -15
1 -7 -7 -13 -19 -13 -11 0 -18 4 -15 9 3 5 -25 7 -62 5 -37 -2 -73 -4 -79 -4
-7 0 -13 -7 -13 -15 0 -9 -9 -15 -25 -15 -14 0 -25 5 -25 10 0 6 -20 10 -45
10 -33 0 -45 4 -45 15 0 11 11 15 43 15 43 0 147 43 147 61 0 5 20 9 44 9 48
0 106 17 106 31 0 5 9 9 20 9 16 0 19 -6 17 -37z m1900 22 c7 -21 2 -25 -41
-31 -33 -4 -36 -2 -36 21 0 22 4 25 35 25 23 0 38 -6 42 -15z m-1267 -5 c0 -5
-4 -10 -10 -10 -5 0 -10 5 -10 10 0 6 5 10 10 10 6 0 10 -4 10 -10z m-170 -15
c0 -8 -9 -15 -20 -15 -22 0 -27 15 -7 23 21 9 27 7 27 -8z m430 -6 c0 -5 -7
-9 -15 -9 -15 0 -20 12 -9 23 8 8 24 -1 24 -14z m1370 5 c0 -17 -22 -14 -28 4
-2 7 3 12 12 12 9 0 16 -7 16 -16z m-2520 -4 c0 -5 -5 -10 -11 -10 -5 0 -7 5
-4 10 3 6 8 10 11 10 2 0 4 -4 4 -10z m2381 -5 c0 -5 -9 -11 -21 -13 -20 -3
-27 8 -13 22 10 9 34 3 34 -9z m-607 -17 c5 -9 8 -19 6 -21 -11 -9 -150 -15
-150 -6 0 5 7 9 15 9 8 0 23 9 33 20 21 25 79 24 96 -2z m461 2 c0 -22 -39
-19 -43 3 -3 15 1 18 20 15 12 -2 23 -10 23 -18z m-1275 -5 c0 -8 -9 -15 -20
-15 -20 0 -26 11 -13 23 12 13 33 7 33 -8z m550 -15 c0 -16 -7 -20 -34 -20
-36 0 -52 12 -41 30 3 6 22 10 41 10 27 0 34 -4 34 -20z m-742 -2 c-6 -18 -28
-21 -28 -4 0 9 7 16 16 16 9 0 14 -5 12 -12z m572 -13 c0 -11 -12 -15 -50 -15
-78 0 -62 26 18 29 22 1 32 -4 32 -14z m-760 -5 c0 -5 -4 -10 -10 -10 -5 0
-10 5 -10 10 0 6 5 10 10 10 6 0 10 -4 10 -10z m-822 -12 c-7 -19 -38 -22 -38
-4 0 10 9 16 21 16 12 0 19 -5 17 -12z m2092 -13 c0 -20 -7 -22 -95 -34 -55
-8 -84 -17 -93 -29 -17 -22 -12 -94 7 -100 10 -3 12 1 8 18 -10 37 9 57 63 70
46 11 53 10 71 -6 13 -12 19 -27 16 -41 -7 -35 19 -28 34 10 7 17 18 35 23 39
6 4 46 8 88 8 76 0 77 0 80 -27 l3 -28 103 2 c111 2 137 -11 45 -23 -82 -9
-93 -17 -93 -64 0 -39 -11 -67 -38 -102 -20 -25 -2 -29 84 -18 44 6 167 19
274 30 107 12 222 25 255 30 301 47 408 63 458 67 31 3 60 9 63 14 10 17 46
10 42 -8 -4 -19 -7 -20 -563 -102 -227 -34 -411 -54 -950 -105 -143 -14 -348
-34 -455 -45 -107 -11 -242 -25 -300 -31 -58 -6 -143 -15 -190 -20 -47 -6
-143 -15 -215 -20 -71 -6 -188 -17 -260 -25 -136 -16 -501 -50 -690 -65 -60
-5 -162 -13 -225 -19 -208 -19 -445 -30 -454 -21 -10 10 47 15 309 30 192 10
445 31 610 50 50 5 164 17 255 25 91 8 248 24 350 35 102 11 230 24 285 30
255 26 401 42 663 71 97 12 139 29 69 29 -41 0 -48 6 -37 34 8 22 -5 60 -32
98 -10 14 -9 20 5 36 9 10 17 24 17 31 0 7 11 26 25 43 14 16 25 35 25 41 1
13 80 67 99 67 6 0 11 4 11 9 0 19 57 29 153 29 75 0 97 -3 97 -13z m930 -5
c0 -14 -37 -31 -54 -24 -32 12 -13 32 32 33 12 1 22 -3 22 -9z m-640 -10 c12
-8 12 -10 -5 -10 -11 0 -30 -3 -42 -6 -13 -4 -23 -2 -23 4 0 6 10 13 23 15 12
2 24 5 27 5 3 1 12 -3 20 -8z m-90 -11 c0 -7 -51 -19 -82 -19 -16 0 -18 3 -10
13 11 13 92 19 92 6z m373 -18 c18 -18 -3 -29 -58 -31 -72 -4 -75 -2 -75 23 0
22 4 23 61 21 33 0 65 -6 72 -13z m-4240 -116 c3 -77 2 -102 -3 -70 -8 50 -13
202 -6 194 2 -2 6 -58 9 -124z m4030 119 c26 -5 37 -12 37 -24 0 -14 -12 -18
-61 -24 -103 -10 -111 -9 -107 17 2 16 12 24 38 28 52 9 52 9 93 3z m-2073
-34 c0 -5 -4 -10 -10 -10 -5 0 -10 5 -10 10 0 6 5 10 10 10 6 0 10 -4 10 -10z
m1054 4 c18 -7 22 -39 6 -49 -5 -3 -10 -2 -10 3 0 6 -7 13 -16 16 -14 5 -229
-11 -634 -48 -85 -8 -204 -17 -265 -20 -154 -8 -103 10 67 24 167 14 632 58
718 69 87 11 115 12 134 5z m2064 -12 c3 -9 -3 -13 -19 -10 -12 1 -24 9 -27
16 -3 9 3 13 19 10 12 -1 24 -9 27 -16z m-3288 -1 c0 -12 -25 -21 -57 -21 -21
0 -24 2 -13 15 13 16 70 21 70 6z m-415 -41 c-3 -5 -13 -10 -21 -10 -8 0 -12
5 -9 10 3 6 13 10 21 10 8 0 12 -4 9 -10z m1635 -29 c0 -10 -6 -24 -14 -30 -8
-7 -17 -27 -20 -45 -4 -18 -15 -51 -26 -74 -11 -23 -20 -47 -20 -55 0 -18 -36
-51 -43 -40 -5 8 44 134 87 226 20 40 36 49 36 18z m4005 -14 c9 -15 16 -52
18 -102 2 -69 0 -80 -15 -83 -13 -2 -18 3 -18 17 0 11 -9 35 -20 53 -13 22
-20 51 -20 86 0 45 3 52 20 52 11 0 26 -10 35 -23z m-6087 5 c10 -7 8 -12 -5
-24 -44 -40 -183 -65 -183 -33 0 34 151 80 188 57z m982 -30 c-38 -25 -246
-245 -288 -304 -12 -17 -42 -26 -42 -12 0 9 34 51 123 149 150 166 172 185
203 184 l29 0 -25 -17z m-350 -33 c0 -7 -12 -23 -26 -36 -23 -21 -24 -25 -10
-36 14 -11 12 -16 -17 -48 -28 -32 -39 -37 -92 -43 -33 -4 -81 -9 -107 -12
-60 -7 -63 8 -13 56 24 23 33 40 29 52 -4 13 0 18 15 18 13 0 19 5 15 14 -3 8
5 21 18 30 27 19 188 23 188 5z m-250 -11 c0 -7 -14 -27 -32 -45 -30 -31 -31
-33 -10 -33 12 0 22 -6 22 -13 0 -20 -166 -151 -201 -158 -59 -13 -289 -22
-289 -12 0 18 190 163 213 163 21 0 62 20 43 20 -12 0 33 49 59 63 17 9 94 21
173 26 12 0 22 -4 22 -11z m-440 -22 c0 -8 -16 -24 -34 -36 -34 -20 -36 -20
-53 -3 -18 17 -18 19 7 35 32 21 80 23 80 4z m4296 -57 c26 -23 68 -50 93 -61
25 -11 53 -24 61 -28 12 -6 15 -31 15 -131 0 -68 3 -131 6 -139 17 -40 30
-107 36 -182 3 -46 12 -95 19 -110 26 -51 17 -54 -163 -61 -91 -4 -195 -7
-230 -7 -62 0 -63 0 -63 28 0 15 -4 41 -9 58 -11 39 -2 54 41 68 26 9 33 16
33 38 1 15 3 29 5 30 3 2 23 17 45 34 22 16 74 46 117 66 49 23 78 43 83 57 7
23 -46 130 -89 182 -14 16 -30 44 -36 64 -6 19 -16 35 -21 35 -5 0 -9 12 -9
28 0 28 10 72 16 72 1 0 24 -18 50 -41z m1892 -121 c5 -7 12 -33 15 -58 2 -25
8 -56 12 -70 5 -14 10 -53 12 -88 4 -56 1 -69 -32 -136 -20 -41 -42 -94 -49
-118 l-13 -43 -118 -16 c-71 -10 -161 -15 -229 -13 -71 2 -100 0 -81 -5 l30
-9 -38 -1 c-23 -1 -36 3 -32 9 3 6 -3 10 -15 10 -12 0 -19 -4 -16 -9 3 -5 -72
-12 -172 -15 -97 -4 -285 -11 -417 -16 -132 -6 -274 -9 -315 -8 -69 1 -66 2
35 8 61 4 243 11 405 16 162 5 284 10 270 12 -35 5 -44 15 -91 95 -23 40 -65
110 -92 157 -71 120 -127 229 -127 246 0 24 25 16 43 -15 31 -53 109 -122 164
-147 50 -22 57 -22 83 -9 21 11 36 12 64 4 20 -5 36 -14 36 -18 0 -5 14 -14
31 -22 18 -7 55 -31 83 -53 78 -62 107 -83 150 -106 l38 -21 23 21 c13 12 29
36 36 53 28 70 101 162 146 182 33 16 91 92 105 138 16 54 35 70 56 45z
m-7001 -162 c4 -4 1 -6 -7 -4 -11 2 -14 -9 -11 -62 1 -36 -2 -76 -8 -90 -7
-19 -10 -4 -10 72 -1 79 2 96 14 94 8 -1 18 -6 22 -10z m4702 -217 c64 -103
91 -209 56 -223 -8 -3 -135 -10 -282 -17 -301 -12 -293 -14 -293 63 0 44 8 49
158 88 23 6 42 15 42 20 0 4 24 16 53 24 131 40 158 50 163 58 3 4 24 8 47 8
32 0 45 -5 56 -21z m231 -18 c0 -24 -12 -32 -30 -21 -11 7 -11 11 -1 24 18 22
31 20 31 -3z m2815 -102 c-55 -4 -246 -12 -425 -18 -179 -6 -341 -14 -360 -17
-22 -4 -31 -2 -25 4 6 5 170 15 365 22 195 7 357 14 359 16 2 2 45 3 95 3 l91
-2 -100 -8z m-2897 -57 c2 -24 -1 -32 -12 -32 -12 0 -16 10 -16 36 0 45 24 42
28 -4z m-728 -37 c21 -25 -1 -36 -60 -33 -62 4 -77 23 -28 37 49 14 74 13 88
-4z m1293 -2 c-13 -2 -33 -2 -45 0 -13 2 -3 4 22 4 25 0 35 -2 23 -4z m-536
-19 c-3 -3 -12 -4 -19 -1 -8 3 -5 6 6 6 11 1 17 -2 13 -5z m-2559 -176 c-3
-21 -8 -23 -63 -23 -48 0 -60 3 -63 17 -4 18 16 24 86 27 40 1 43 -1 40 -21z
m97 2 c0 -20 -65 -27 -76 -8 -16 24 -9 29 34 26 29 -2 42 -8 42 -18z m55 16
c0 -2 3 -11 6 -20 5 -12 0 -16 -20 -16 -24 0 -35 18 -19 33 7 8 33 10 33 3z
m-300 -25 c0 -15 -11 -19 -67 -24 -138 -13 -173 -7 -160 27 4 10 34 14 116 15
102 1 111 -1 111 -18z m2695 -11 c4 -6 -14 -10 -47 -9 -49 2 -50 2 -18 9 52
11 58 11 65 0z m131 -2 c-33 -6 -52 -6 -60 2 -7 7 8 10 50 9 l59 -1 -49 -10z
m-286 -8 c-20 -13 -83 -13 -75 0 3 6 25 10 48 10 31 0 38 -3 27 -10z m-177 -7
c-13 -2 -35 -2 -50 0 -16 2 -5 4 22 4 28 0 40 -2 28 -4z m-2250 -12 c28 4 71
8 95 8 36 1 43 -2 40 -16 -4 -19 -1 -19 -155 -29 -91 -6 -103 -5 -103 10 0 9
-4 16 -10 16 -5 0 -10 -7 -10 -15 0 -11 -11 -15 -37 -16 -21 0 -53 -2 -70 -5
-18 -2 -34 1 -34 6 -6 34 -3 35 106 40 61 3 113 2 118 -1 4 -3 31 -2 60 2z
m2070 2 c-13 -2 -33 -2 -45 0 -13 2 -3 4 22 4 25 0 35 -2 23 -4z m-2461 -48
c-2 -16 -9 -35 -15 -42 -13 -13 -165 -21 -183 -10 -13 8 -26 65 -18 78 3 5 54
8 112 7 l107 -3 -3 -30z m569 -15 c5 0 9 -4 9 -9 0 -11 -323 -21 -335 -10 -5
5 27 9 81 10 49 1 116 4 149 9 33 4 66 5 73 3 8 -1 18 -3 23 -3z m-351 -20 c0
-6 -35 -9 -87 -8 -87 1 -87 1 -28 8 96 11 115 11 115 0z m2727 4 c-3 -3 -12
-4 -19 -1 -8 3 -5 6 6 6 11 1 17 -2 13 -5z m3502 -95 c-13 -10 -28 -19 -34
-19 -5 0 -4 4 4 9 14 9 -2 26 -16 18 -13 -8 -338 -19 -331 -12 7 7 228 21 342
22 l60 1 -25 -19z m-404 -9 c-3 -6 -17 -7 -31 -4 -14 4 -31 1 -39 -6 -12 -10
-15 -9 -15 4 0 12 10 16 46 16 28 0 43 -4 39 -10z m-7928 -117 c-2 -16 -4 -3
-4 27 0 30 2 43 4 28 2 -16 2 -40 0 -55z m7818 -66 c10 -122 11 -121 -65 -129
-36 -4 -225 -14 -420 -22 -650 -29 -825 -39 -835 -48 -6 -6 53 -6 150 -1 233
12 327 10 332 -4 3 -8 -4 -13 -16 -13 -11 0 -22 -4 -25 -9 -7 -11 -47 -2 -64
16 -7 7 -21 13 -30 13 -15 0 -15 -2 -2 -10 24 -16 -6 -30 -60 -29 -25 1 -65
-4 -90 -11 -25 -7 -75 -12 -112 -11 -37 0 -70 -4 -73 -9 -3 -6 -23 -9 -43 -9
l-37 2 40 7 40 7 -55 3 c-135 6 -200 4 -203 -5 -3 -6 -9 -6 -18 1 -8 7 -35 10
-64 7 -27 -2 -76 -3 -108 -3 -39 1 -57 -2 -52 -9 3 -6 -1 -11 -10 -11 -9 0
-13 5 -10 10 4 6 -10 10 -34 10 -23 0 -41 -4 -41 -9 0 -6 -13 -6 -32 -1 -35 9
-129 6 -191 -5 -20 -4 -63 -4 -95 0 -47 7 -53 9 -32 16 14 4 66 8 115 8 50 1
176 8 280 15 105 8 222 15 260 16 39 1 115 5 170 9 89 7 93 8 35 9 -71 2 -626
-24 -700 -33 -25 -3 -205 -10 -400 -15 -195 -6 -407 -12 -470 -15 -63 -3 -223
-9 -355 -15 -132 -5 -348 -14 -480 -20 -132 -6 -355 -15 -495 -20 -441 -17
-954 -39 -1265 -55 -165 -8 -374 -17 -465 -20 -91 -3 -212 -8 -270 -11 -91 -5
-103 -4 -92 9 10 12 7 17 -19 27 -23 10 -29 18 -25 32 3 14 0 18 -10 14 -8 -3
-14 1 -14 8 0 18 -31 29 -44 16 -5 -5 -19 -10 -31 -11 -17 -1 -16 -2 5 -9 21
-7 22 -8 5 -10 -14 -1 -9 -6 18 -17 37 -15 48 -37 25 -46 -7 -3 -3 -6 10 -6
13 -1 20 3 17 9 -9 15 14 12 31 -4 12 -12 4 -15 -60 -21 -41 -4 -80 -5 -88 -2
-7 3 -1 6 14 6 26 1 50 20 29 22 -6 1 -16 2 -21 3 -6 0 -15 8 -20 16 -9 13
-11 13 -20 0 -10 -15 -11 -12 -14 23 -1 6 -5 15 -10 18 -5 4 1 10 13 14 25 8
23 32 -2 27 -8 -1 -18 2 -22 8 -3 5 -18 10 -33 10 -19 0 -23 3 -14 9 17 10 -6
21 -45 21 -15 0 -24 2 -22 4 5 5 364 25 1294 71 160 8 425 21 590 30 165 8
415 19 555 25 140 6 392 17 560 25 329 15 336 16 970 45 630 29 1507 67 2090
90 283 11 531 22 550 24 19 1 54 3 77 4 l41 2 7 -83z m415 40 c19 3 32 3 29
-1 -5 -6 -290 -46 -319 -45 -32 1 32 18 88 24 33 3 77 11 98 19 22 7 46 10 54
6 8 -4 31 -5 50 -3z m-8233 -49 c-3 -8 -6 -5 -6 6 -1 11 2 17 5 13 3 -3 4 -12
1 -19z m7368 -168 c3 -5 1 -10 -4 -10 -6 0 -11 5 -11 10 0 6 2 10 4 10 3 0 8
-4 11 -10z m145 0 c0 -5 -7 -10 -15 -10 -8 0 -15 5 -15 10 0 6 7 10 15 10 8 0
15 -4 15 -10z m-380 -10 c-80 -11 -120 -11 -120 0 0 6 35 9 88 9 84 -2 85 -2
32 -9z m237 -36 c-3 -3 -12 -4 -19 -1 -8 3 -5 6 6 6 11 1 17 -2 13 -5z m303
-4 c0 -5 -20 -10 -45 -10 -25 0 -45 5 -45 10 0 6 20 10 45 10 25 0 45 -4 45
-10z m118 3 c-15 -2 -42 -2 -60 0 -18 2 -6 4 27 4 33 0 48 -2 33 -4z m929 -10
c-9 -9 -20 -13 -24 -9 -4 4 -1 11 7 16 25 16 35 11 17 -7z m-1167 -2 c-14 -4
-50 -4 -80 -1 -53 7 -52 7 25 8 49 0 70 -3 55 -7z m1130 1 c0 -4 -30 -13 -67
-20 -37 -7 -70 -18 -74 -23 -4 -7 -9 -4 -13 6 -11 30 -7 37 22 31 20 -4 112 5
130 13 1 0 2 -2 2 -7z m-7712 -9 c-10 -2 -26 -2 -35 0 -10 3 -2 5 17 5 19 0
27 -2 18 -5z m6395 0 c-13 -2 -35 -2 -50 0 -16 2 -5 4 22 4 28 0 40 -2 28 -4z
m-383 -19 c0 -2 -24 -4 -52 -4 -29 0 -48 4 -41 8 12 7 93 4 93 -4z m-5925 -4
c-4 -6 16 -10 54 -10 61 0 76 -7 62 -28 -9 -15 -71 -28 -71 -15 0 5 -10 9 -22
9 -13 -1 -22 4 -21 11 1 6 -4 14 -12 17 -8 3 -15 2 -15 -3 0 -5 -16 -11 -35
-13 -19 -2 -35 0 -35 4 0 4 -7 8 -16 8 -8 0 -12 5 -9 11 4 5 19 8 33 5 15 -4
41 -2 57 3 17 5 31 10 33 10 2 1 0 -3 -3 -9z m4395 0 c0 -5 -4 -10 -9 -10 -6
0 -13 5 -16 10 -3 6 1 10 9 10 9 0 16 -4 16 -10z m-207 -7 c-7 -2 -19 -2 -25
0 -7 3 -2 5 12 5 14 0 19 -2 13 -5z m1430 0 c-7 -2 -21 -2 -30 0 -10 3 -4 5
12 5 17 0 24 -2 18 -5z m1185 -16 c19 -15 -4 -27 -49 -27 -34 0 -57 19 -41 34
9 10 75 4 90 -7z m-353 -6 c3 -5 -7 -12 -22 -14 -26 -4 -26 -4 5 -6 50 -2 40
-25 -13 -29 -36 -2 -44 0 -40 13 3 8 7 22 10 30 5 16 50 21 60 6z m1286 -38
c-9 -16 -10 -14 -11 12 0 21 3 26 11 18 8 -8 8 -16 0 -30z m-1630 5 c11 -11
19 -24 19 -27 0 -4 -23 -8 -51 -9 l-50 -2 18 30 c21 35 39 38 64 8z m-353 -23
l22 -25 -29 0 c-33 0 -46 13 -37 35 8 21 19 19 44 -10z m-304 -7 c-1 -10 6
-19 15 -19 21 -2 -84 -17 -127 -18 -30 -1 -32 0 -18 15 9 8 16 22 16 30 0 12
12 14 58 12 47 -2 57 -6 56 -20z m-337 -12 c-13 -10 -15 -15 -5 -19 25 -9 1
-16 -77 -23 -71 -6 -78 -5 -61 8 18 14 18 15 -5 31 -23 16 -20 17 71 17 83 -1
93 -2 77 -14z m2637 -2 c7 -18 8 -110 1 -103 -8 9 -22 119 -15 119 5 0 11 -7
14 -16z m-3721 -4 c-48 -11 -329 -23 -320 -13 11 11 118 20 247 20 68 1 94 -2
73 -7z m750 -12 c-12 -13 -14 -21 -6 -26 6 -4 -19 -7 -57 -7 -37 0 -66 3 -64
7 2 4 0 9 -6 13 -5 3 -10 12 -10 19 0 9 23 12 80 13 79 0 80 0 63 -19z m-1120
-5 c-13 -2 -33 -2 -45 0 -13 2 -3 4 22 4 25 0 35 -2 23 -4z m770 -18 c-15 -20
-27 -24 -68 -25 -39 0 -53 4 -62 19 -15 23 -2 27 90 30 l58 1 -18 -25z m-376
1 c-5 -11 4 -16 36 -18 74 -5 13 -26 -101 -34 -89 -6 -102 -5 -108 10 -9 24
-88 22 -114 -4 -16 -16 -33 -20 -89 -20 -38 0 -83 -3 -101 -7 -26 -5 -31 -3
-25 7 6 10 3 12 -13 8 -16 -5 -20 -2 -17 14 3 12 7 23 9 26 3 2 69 6 148 9 79
2 175 8 213 12 119 14 168 13 162 -3z m2423 5 c0 -12 -21 -19 -37 -13 -22 8
-14 22 12 22 14 0 25 -4 25 -9z m-360 -15 c0 -2 -7 -7 -16 -10 -8 -3 -12 -2
-9 4 6 10 25 14 25 6z m-2762 -28 c-3 -8 -26 -14 -56 -16 -42 -2 -52 0 -52 12
0 13 12 16 56 16 40 0 55 -4 52 -12z m62 -8 c-6 -11 -15 -20 -20 -20 -5 0 -8
9 -7 20 1 12 8 20 19 20 16 0 17 -3 8 -20z m2295 10 c4 -6 -8 -10 -29 -10 -19
0 -38 5 -41 10 -4 6 8 10 29 10 19 0 38 -4 41 -10z m106 -1 c-26 -5 -50 -5
-60 1 -11 7 2 9 44 9 l60 -1 -44 -9z m1917 -42 c26 -38 28 -48 23 -102 l-6
-60 -40 -6 c-22 -4 -45 -3 -51 2 -21 17 -104 166 -104 187 0 19 7 21 68 24 37
2 70 2 74 0 4 -2 20 -22 36 -45z m-4758 23 c-8 -5 -11 -10 -6 -10 5 0 1 -9 -9
-20 -23 -26 -65 -27 -65 -2 0 28 20 42 60 42 26 0 31 -3 20 -10z m1655 0 c-3
-5 -12 -10 -20 -10 -8 0 -17 5 -20 10 -4 6 5 10 20 10 15 0 24 -4 20 -10z
m-2035 -15 c0 -8 -4 -15 -10 -15 -5 0 -9 -6 -7 -12 1 -8 -10 -14 -26 -16 l-29
-3 23 30 c24 33 49 41 49 16z m2623 8 c-13 -2 -35 -2 -50 0 -16 2 -5 4 22 4
28 0 40 -2 28 -4z m-1016 -9 c-3 -3 -12 -4 -19 -1 -8 3 -5 6 6 6 11 1 17 -2
13 -5z m-1977 -8 c0 -3 -4 -8 -10 -11 -5 -3 -10 -1 -10 4 0 6 5 11 10 11 6 0
10 -2 10 -4z m1580 -21 c0 -28 -71 -48 -85 -25 -4 6 -4 17 -1 25 8 21 86 21
86 0z m921 -18 c-8 -10 -37 -15 -104 -15 -72 -1 -86 1 -62 9 17 5 51 7 77 3
39 -5 50 -2 64 15 12 13 22 17 28 11 6 -6 5 -14 -3 -23z m702 26 c-7 -2 -19
-2 -25 0 -7 3 -2 5 12 5 14 0 19 -2 13 -5z m-3576 -9 c-3 -3 -12 -4 -19 -1 -8
3 -5 6 6 6 11 1 17 -2 13 -5z m3426 -1 c-13 -2 -33 -2 -45 0 -13 2 -3 4 22 4
25 0 35 -2 23 -4z m1237 -22 c0 -43 -12 -44 -43 -5 l-28 34 36 0 c32 0 35 -2
35 -29z m-4280 9 c0 -5 -19 -10 -42 -9 -37 1 -39 2 -18 9 36 12 60 12 60 0z
m1140 -10 c-13 -24 -62 -27 -79 -6 -15 18 -1 24 52 25 35 1 37 -1 27 -19z
m930 1 c0 -10 -9 -21 -20 -24 -24 -6 -25 1 -3 25 20 23 23 23 23 -1z m783 12
c-35 -2 -91 -2 -125 0 -35 2 -7 3 62 3 69 0 97 -1 63 -3z m1055 -5 c7 -7 12
-20 12 -30 0 -9 8 -22 18 -27 13 -8 6 -10 -34 -11 l-51 0 5 33 c6 43 27 58 50
35z m-4238 -18 c0 -5 -6 -10 -12 -11 -92 -7 -138 -7 -138 1 0 8 36 14 118 18
17 1 32 -2 32 -8z m1030 -3 c0 -20 -22 -37 -47 -37 -27 0 -31 24 -5 39 24 15
52 13 52 -2z m1290 -10 c8 -3 -12 -6 -45 -6 -58 0 -59 0 -30 13 17 7 37 10 45
6 8 -4 22 -10 30 -13z m1552 0 c-30 -31 -28 -37 12 -37 19 0 38 -5 41 -11 5
-7 -13 -8 -57 -3 -34 4 -64 8 -66 9 -1 1 5 16 14 33 12 26 22 32 46 32 l31 0
-21 -23z m-1903 4 c25 -16 -23 -31 -101 -31 -66 1 -71 2 -54 15 23 18 56 20
56 4 0 -8 4 -8 13 -1 11 9 38 18 62 21 6 0 16 -3 24 -8z m-2374 -11 c4 -6 -7
-10 -27 -9 -31 1 -32 1 -8 9 14 4 26 8 27 9 1 1 5 -3 8 -9z m5395 0 c0 -5 -9
-10 -20 -10 -11 0 -20 5 -20 10 0 6 9 10 20 10 11 0 20 -4 20 -10z m-4400 -10
c-20 -13 -40 -13 -40 0 0 6 12 10 28 10 21 0 24 -2 12 -10z m938 -2 c-3 -7
-13 -15 -24 -17 -16 -3 -17 -1 -5 13 16 19 34 21 29 4z m1392 -8 c0 -13 -7
-20 -20 -20 -13 0 -20 7 -20 20 0 13 7 20 20 20 13 0 20 -7 20 -20z m687 6
c-5 -14 -238 -27 -252 -14 -19 17 13 23 135 24 83 1 119 -3 117 -10z m-2177
-17 c0 -16 -5 -20 -27 -17 -33 4 -34 20 -1 30 13 3 24 6 26 7 1 1 2 -8 2 -20z
m-1280 -1 c0 -7 -14 -14 -31 -15 -26 -2 -29 0 -19 12 15 18 50 20 50 3z m2341
1 c-16 -6 -28 -6 -35 1 -7 7 1 10 25 9 32 0 33 -1 10 -10z m844 2 c-6 -5 -40
-11 -77 -14 -56 -5 -68 -4 -68 8 0 12 16 15 77 15 44 0 73 -4 68 -9z m-4535
-11 c0 -5 -2 -10 -4 -10 -3 0 -8 5 -11 10 -3 6 -1 10 4 10 6 0 11 -4 11 -10z
m920 -14 c0 -13 -39 -30 -49 -21 -2 3 1 5 7 5 6 0 9 7 6 15 -4 10 0 15 15 15
12 0 21 -6 21 -14z m2363 7 c-7 -2 -19 -2 -25 0 -7 3 -2 5 12 5 14 0 19 -2 13
-5z m44 1 c-3 -3 -12 -4 -19 -1 -8 3 -5 6 6 6 11 1 17 -2 13 -5z m-154 -14
c-13 -5 -23 -14 -23 -20 0 -5 -12 -10 -26 -10 -14 0 -23 4 -19 10 3 6 2 10 -4
10 -5 0 -11 -6 -14 -12 -2 -7 -7 -10 -11 -7 -17 16 27 39 72 38 38 0 43 -2 25
-9z m1022 -2 c38 3 44 1 39 -12 -7 -17 -46 -24 -177 -29 -48 -2 -82 0 -75 5 7
4 29 8 49 8 23 0 39 6 43 15 7 20 42 19 50 -1 7 -17 27 -10 22 9 -1 7 -1 10 1
7 2 -3 23 -4 48 -2z m-3715 -6 c0 -15 -24 -32 -44 -32 -20 0 -19 2 4 20 27 21
40 25 40 12z m1265 -2 c-3 -5 -16 -10 -28 -9 -21 0 -21 1 -2 9 28 12 37 12 30
0z m4089 0 c46 -17 29 -60 -24 -60 -21 0 -34 38 -18 57 13 16 10 15 42 3z
m-6926 -7 c-21 -2 -55 -2 -75 0 -21 2 -4 4 37 4 41 0 58 -2 38 -4z m4362 -3
c0 -5 -2 -10 -4 -10 -2 0 -20 -7 -40 -15 -36 -15 -36 -15 -36 10 0 23 4 25 40
25 22 0 40 -4 40 -10z m413 -14 c4 -10 19 -12 54 -9 36 3 44 2 33 -6 -8 -6
-49 -11 -90 -11 l-75 0 30 20 c36 24 41 24 48 6z m1785 5 c21 -13 10 -46 -16
-49 -24 -4 -38 18 -28 43 6 17 24 19 44 6z m-5438 -16 c-7 -8 -16 -15 -21 -15
-5 0 -9 7 -9 15 0 9 9 15 21 15 18 0 19 -2 9 -15z m2814 -3 c5 -3 -2 -11 -15
-18 -27 -15 -105 -19 -113 -5 -18 28 85 47 128 23z m2265 -33 l20 -41 -31 6
c-17 3 -37 6 -44 6 -20 0 -17 47 4 59 27 16 30 14 51 -30z m-5525 16 c-26 -20
-50 -20 -32 0 7 8 22 14 32 15 20 0 20 0 0 -15z m4696 1 c0 -14 -35 -36 -56
-36 -26 0 -31 9 -12 28 11 11 68 18 68 8z m-1920 -10 c0 -2 -7 -9 -15 -16 -12
-10 -15 -10 -15 4 0 9 7 16 15 16 8 0 15 -2 15 -4z m1450 -10 c0 -3 -4 -8 -10
-11 -5 -3 -10 -1 -10 4 0 6 5 11 10 11 6 0 10 -2 10 -4z m-1880 -16 c0 -13
-49 -32 -67 -26 -24 10 -14 29 11 22 14 -3 28 -2 31 4 8 13 25 13 25 0z m1745
0 c3 -5 -3 -10 -14 -10 -12 0 -21 5 -21 10 0 6 6 10 14 10 8 0 18 -4 21 -10z
m105 -10 c0 -15 -7 -20 -25 -20 -15 0 -25 6 -25 14 0 8 -8 17 -17 19 -10 3 1
5 25 6 36 1 42 -2 42 -19z m-2320 -15 c-7 -8 -19 -15 -26 -15 -8 0 -14 7 -14
15 0 10 10 15 26 15 22 0 25 -2 14 -15z m-1950 1 c0 -3 -4 -8 -10 -11 -5 -3
-10 -1 -10 4 0 6 5 11 10 11 6 0 10 -2 10 -4z m3768 -3 c-21 -2 -57 -2 -80 0
-24 2 -7 4 37 4 44 0 63 -2 43 -4z m-2278 -18 c-7 -8 -16 -12 -21 -9 -13 8 -1
24 18 24 13 0 13 -3 3 -15z m3258 -7 c3 -16 -5 -18 -70 -16 -40 1 -56 3 -36 5
20 2 42 11 49 19 16 19 53 14 57 -8z m1630 -7 c2 -13 -1 -28 -7 -34 -15 -15
-41 10 -41 40 0 20 4 24 23 21 14 -2 23 -11 25 -27z m-2669 3 c-8 -10 -23 -14
-41 -12 -19 3 -28 0 -28 -9 0 -7 -4 -13 -8 -13 -7 0 -8 31 -3 48 1 1 22 2 47
2 41 0 45 -2 33 -16z m141 -6 c0 -21 -5 -23 -65 -24 -36 -1 -65 1 -65 4 0 3 7
14 17 24 11 13 30 18 65 18 43 0 48 -2 48 -22z m1028 5 c-15 -2 -42 -2 -60 0
-18 2 -6 4 27 4 33 0 48 -2 33 -4z m1120 -31 c4 -37 -15 -50 -47 -33 -21 12
-25 50 -6 64 24 17 50 2 53 -31z m-4958 13 c-13 -16 -50 -21 -50 -7 0 15 13
22 38 22 21 0 22 -2 12 -15z m3230 0 c0 -10 -11 -15 -35 -15 -26 0 -33 3 -29
15 4 9 19 15 35 15 19 0 29 -5 29 -15z m-3950 -13 c0 -10 -16 -39 -35 -64 -35
-45 -36 -45 -112 -52 -42 -3 -100 -6 -128 -6 -29 0 -71 -7 -93 -14 -40 -15
-42 -14 -62 11 -11 15 -17 30 -12 35 4 4 74 10 154 13 161 5 195 14 242 64 34
35 46 39 46 13z m3023 -2 c4 -15 0 -20 -13 -20 -25 0 -36 20 -19 31 21 13 26
11 32 -11z m-2763 -5 c-7 -8 -21 -15 -32 -15 -17 0 -18 3 -8 15 7 8 21 15 32
15 17 0 18 -3 8 -15z m3758 8 c-10 -2 -28 -2 -40 0 -13 2 -5 4 17 4 22 1 32
-1 23 -4z m1259 -13 c-3 -11 -1 -23 4 -26 21 -12 7 -24 -26 -22 -36 2 -46 14
-20 24 8 4 15 15 15 25 0 11 7 19 16 19 11 0 15 -6 11 -20z m-1434 3 c-7 -2
-21 -2 -30 0 -10 3 -4 5 12 5 17 0 24 -2 18 -5z m-1259 -18 c-4 -9 -19 -15
-40 -15 -26 0 -32 3 -28 15 4 9 19 15 40 15 26 0 32 -3 28 -15z m2354 -2 c-4
-23 -78 -32 -78 -10 0 21 10 27 47 27 27 0 34 -4 31 -17z m1627 7 c3 -6 -2
-10 -12 -11 -186 -9 -223 -9 -223 3 0 16 226 23 235 8z m-6225 -10 c-20 -13
-63 -13 -55 0 3 6 21 10 38 10 24 0 28 -3 17 -10z m4488 -12 c3 -15 -4 -18
-42 -18 -25 0 -46 4 -46 8 0 34 82 42 88 10z m2439 -3 c9 -25 -4 -29 -17 -6
-7 15 -7 21 0 21 6 0 13 -7 17 -15z m-7917 -5 c0 -5 -12 -10 -27 -10 -22 0
-25 2 -13 10 20 13 40 13 40 0z m2768 -2 c-3 -7 -13 -15 -24 -17 -16 -3 -17
-1 -5 13 16 19 34 21 29 4z m1585 -12 c7 -18 -1 -26 -29 -26 -25 0 -39 14 -29
30 9 15 52 12 58 -4z m627 4 c0 -14 -39 -32 -56 -26 -8 3 -14 12 -14 21 0 11
10 15 35 15 19 0 35 -4 35 -10z m-5527 -7 c-7 -2 -19 -2 -25 0 -7 3 -2 5 12 5
14 0 19 -2 13 -5z m2868 -6 c-11 -11 -81 -17 -81 -7 0 13 11 17 51 17 27 0 37
-3 30 -10z m-2826 -7 c-3 -5 -13 -10 -21 -10 -8 0 -12 5 -9 10 3 6 13 10 21
10 8 0 12 -4 9 -10z m4374 -21 c-27 -21 -39 -24 -39 -10 0 15 42 41 53 34 5
-3 -1 -14 -14 -24z m-2004 10 c11 -16 0 -21 -55 -27 -32 -3 -50 -1 -50 6 0 16
23 27 28 14 4 -14 38 -16 47 -3 3 5 -5 12 -17 14 -17 3 -15 5 9 6 17 0 35 -4
38 -10z m3723 4 c-10 -2 -28 -2 -40 0 -13 2 -5 4 17 4 22 1 32 -1 23 -4z
m-4517 -66 c-36 -59 -54 -69 -143 -78 -46 -5 -103 -11 -128 -14 -25 -4 -70 -2
-100 2 -45 7 -55 12 -55 28 0 19 6 20 85 17 47 -2 125 1 175 7 88 10 90 12
135 56 50 50 67 40 31 -18z m4407 56 c-21 -2 -55 -2 -75 0 -21 2 -4 4 37 4 41
0 58 -2 38 -4z m-4108 -13 c0 -12 -42 -31 -50 -23 -6 5 30 33 42 33 4 0 8 -5
8 -10z m3859 6 c-2 -2 -58 -6 -124 -9 -68 -2 -96 -1 -65 3 60 7 196 12 189 6z
m-4601 -28 c2 -8 -19 -38 -46 -66 -47 -51 -49 -52 -108 -52 -32 -1 -88 -7
-124 -15 -49 -10 -77 -11 -120 -3 -64 13 -73 18 -64 42 5 13 13 16 33 11 36
-10 196 -6 267 5 52 8 64 15 99 54 41 45 58 51 63 24z m3697 1 c1 -8 6 -13 13
-11 7 1 12 -2 12 -8 0 -6 -35 -9 -87 -8 -78 1 -82 2 -33 7 33 4 55 11 56 19 2
20 3 20 22 18 9 -2 17 -9 17 -17z m552 4 c-20 -2 -52 -2 -70 0 -17 2 0 4 38 4
39 0 53 -2 32 -4z m1488 -13 c0 -18 -52 -27 -67 -12 -17 17 2 33 35 30 20 -2
32 -8 32 -18z m-6205 -13 c0 -14 -19 -41 -50 -72 l-50 -49 -97 -7 c-54 -4
-110 -11 -125 -15 -32 -7 -126 3 -148 16 -34 21 10 32 146 36 175 5 208 14
259 69 45 49 65 56 65 22z m2790 17 c0 -8 -32 -33 -42 -34 -5 0 -8 9 -8 20 0
15 7 20 25 20 14 0 25 -3 25 -6z m1773 -1 c-18 -2 -48 -2 -65 0 -18 2 -4 4 32
4 36 0 50 -2 33 -4z m1185 -18 c10 -10 -12 -24 -43 -27 -25 -2 -31 1 -33 21
-4 22 -1 24 33 18 21 -3 40 -9 43 -12z m97 0 c0 -5 -15 -11 -32 -13 -32 -3
-45 11 -20 22 19 8 52 2 52 -9z m-2155 -4 c0 -5 -7 -12 -16 -15 -14 -5 -15 -4
-4 9 14 17 20 19 20 6z m2960 -1 c0 -14 -40 -22 -90 -18 -71 5 -57 23 20 25
39 1 70 -2 70 -7z m-1320 -15 c0 -8 -9 -19 -21 -25 -16 -9 -26 -8 -45 5 -33
21 -22 35 27 35 28 0 39 -4 39 -15z m115 6 c6 -11 -26 -31 -49 -31 -9 0 -16 9
-16 20 0 15 7 20 29 20 17 0 32 -4 36 -9z m-435 -30 c0 -28 -15 -34 -60 -26
-47 8 -51 19 -12 33 46 17 72 14 72 -7z m1220 7 c0 -9 -18 -13 -55 -13 -37 0
-55 4 -55 13 0 8 18 12 55 12 37 0 55 -4 55 -12z m-3912 -18 c-3 -11 -17 -15
-56 -15 -28 0 -52 2 -52 6 0 15 24 24 65 24 35 0 45 -3 43 -15z m2577 0 c0
-10 -12 -16 -34 -18 -39 -4 -64 13 -41 29 23 14 75 7 75 -11z m-5675 2 c0 -11
-46 -32 -70 -32 -25 0 -26 16 -2 29 21 13 72 14 72 3z m2600 -27 c0 -8 -14
-17 -35 -21 -42 -7 -53 -1 -35 21 16 20 70 20 70 0z m2560 1 c0 -29 -16 -36
-86 -36 -57 0 -74 3 -74 14 0 8 6 17 13 19 15 7 147 9 147 3z m1035 -16 c-11
-5 -65 -8 -120 -7 l-100 1 90 6 c144 10 153 10 130 0z m990 -11 c5 -5 -6 -9
-28 -9 -35 0 -45 8 -30 23 8 8 43 -1 58 -14z m-5081 -6 c-20 -15 -40 -17 -48
-4 -8 13 1 18 35 18 29 0 30 -2 13 -14z m2388 -8 c-6 -33 -19 -39 -88 -43
l-66 -4 4 28 c3 27 7 29 58 35 83 9 96 7 92 -16z m1287 -1 c2 -2 -18 -4 -45
-4 -27 0 -74 -2 -104 -5 l-55 -5 55 13 c48 11 137 11 149 1z m1000 7 c22 -14
3 -31 -35 -31 -36 0 -42 8 -22 28 14 14 37 15 57 3z m-5176 -8 c-36 -5 -44
-19 -15 -26 11 -3 7 -5 -10 -6 -15 0 -29 3 -33 8 -8 14 26 31 60 29 l30 -1
-32 -4z m2436 -39 c-13 -16 -99 -19 -99 -4 0 16 37 26 76 22 28 -4 32 -7 23
-18z m2351 11 c0 -11 -12 -15 -46 -15 -40 0 -45 2 -34 15 7 8 28 15 46 15 24
0 34 -5 34 -15z m-5256 -10 c-10 -8 -29 -15 -42 -15 -19 0 -21 2 -10 15 7 8
26 14 42 15 28 0 29 -1 10 -15z m2776 0 c0 -8 -8 -16 -17 -16 -10 -1 -36 -3
-57 -4 -39 -2 -39 -2 -19 15 27 22 93 25 93 5z m1330 5 c-69 -8 -366 -21 -315
-14 62 9 243 21 310 21 l70 0 -65 -7z m103 3 c-7 -2 -19 -2 -25 0 -7 3 -2 5
12 5 14 0 19 -2 13 -5z m-4694 -22 c17 -11 4 -18 -41 -22 -41 -4 -53 12 -16
23 33 9 41 9 57 -1z m4148 -7 c-3 -3 -12 -4 -19 -1 -8 3 -5 6 6 6 11 1 17 -2
13 -5z m-5117 -48 c0 -3 -4 -8 -10 -11 -5 -3 -10 -1 -10 4 0 6 5 11 10 11 6 0
10 -2 10 -4z m5450 -73 c0 -2 -8 -13 -18 -23 -15 -16 -30 -19 -85 -18 -37 1
-67 6 -67 11 0 4 6 7 13 6 30 -4 48 2 41 13 -5 8 2 9 24 5 20 -4 32 -2 35 7 5
12 57 11 57 -1z m257 -9 c-3 -3 -12 -4 -19 -1 -8 3 -5 6 6 6 11 1 17 -2 13 -5z
m-4397 -13 c0 -11 -25 -21 -55 -21 -27 0 -42 16 -23 23 22 9 78 7 78 -2z
m-470 -10 c0 -24 -47 -41 -109 -41 -63 0 -64 0 -47 19 10 11 32 22 50 24 62 8
106 7 106 -2z m4387 -23 c-3 -7 -5 -2 -5 12 0 14 2 19 5 13 2 -7 2 -19 0 -25z
m1418 2 c3 -5 -1 -10 -10 -10 -9 0 -13 5 -10 10 3 6 8 10 10 10 2 0 7 -4 10
-10z m-1338 -6 c-3 -3 -12 -4 -19 -1 -8 3 -5 6 6 6 11 1 17 -2 13 -5z m1113
-4 c0 -5 -4 -10 -9 -10 -5 0 -18 -3 -28 -7 -16 -6 -16 -5 -4 10 15 19 41 23
41 7z m70 0 c0 -5 -5 -10 -11 -10 -5 0 -7 5 -4 10 3 6 8 10 11 10 2 0 4 -4 4
-10z m-6243 -6 c-3 -3 -12 -4 -19 -1 -8 3 -5 6 6 6 11 1 17 -2 13 -5z m6040
-21 c-3 -3 -11 -2 -17 2 -9 6 -9 10 1 16 14 8 27 -7 16 -18z m-264 3 c4 -9 -2
-17 -14 -21 -27 -9 -35 0 -19 20 16 19 26 19 33 1z m75 3 c-2 -6 -7 -10 -11
-10 -4 1 -16 1 -28 1 -11 0 -17 5 -14 10 8 14 58 13 53 -1z m102 2 c0 -11 -49
-21 -67 -14 -7 3 -10 9 -7 14 7 12 74 12 74 0z m-6412 -11 c21 0 24 -2 12 -10
-23 -15 -57 -12 -64 6 -5 12 -2 15 10 10 8 -3 28 -6 42 -6z m8232 -12 c0 -16
-3 -19 -11 -11 -6 6 -8 16 -5 22 11 17 16 13 16 -11z m118 0 c8 -10 -1 -13
-39 -14 -46 -1 -58 4 -42 19 11 12 70 8 81 -5z m57 2 c3 -5 1 -10 -4 -10 -6 0
-11 5 -11 10 0 6 2 10 4 10 3 0 8 -4 11 -10z m-8490 -10 c3 -5 -3 -10 -14 -10
-12 0 -21 5 -21 10 0 6 6 10 14 10 8 0 18 -4 21 -10z m7493 -53 c6 -23 10 -42
9 -43 -1 -1 -69 -4 -152 -8 l-150 -6 0 50 c0 42 3 50 18 50 10 0 15 -5 12 -11
-4 -5 -4 -21 -1 -35 6 -22 11 -24 75 -24 109 0 160 10 167 32 3 10 0 26 -7 34
-10 12 -9 13 4 9 8 -4 20 -25 25 -48z m-3179 18 c7 -7 -34 -10 -122 -10 -73 0
-220 -6 -327 -13 -107 -7 -238 -15 -290 -18 -52 -2 -169 -9 -260 -14 -91 -6
-226 -13 -300 -15 -74 -3 -155 -8 -180 -12 -25 -3 -92 -7 -150 -8 -58 -1 -157
-5 -220 -9 -268 -14 -504 -26 -640 -30 -139 -5 -137 -4 50 9 179 12 306 20
1025 60 138 8 392 23 565 35 563 36 593 38 717 36 67 0 127 -5 132 -11z m2974
8 c-7 -2 -19 -2 -25 0 -7 3 -2 5 12 5 14 0 19 -2 13 -5z m-348 -21 c6 -4 24
-7 40 -7 25 0 30 -4 30 -24 0 -33 -20 -37 -215 -46 l-160 -8 0 32 c0 28 3 31
29 31 16 0 34 7 41 15 10 12 35 15 119 14 58 0 111 -4 116 -7z m375 -2 c11 -8
9 -9 -12 -8 -16 1 -28 6 -28 10 0 11 22 10 40 -2z m90 6 c0 -2 -11 -6 -25 -8
-14 -3 -25 -1 -25 3 0 5 11 9 25 9 14 0 25 -2 25 -4z m-3080 -37 c0 -11 -4
-18 -10 -14 -5 3 -7 12 -3 20 7 21 13 19 13 -6z m1554 -41 c-1 -35 1 -37 22
-32 23 6 25 3 28 -28 1 -7 -30 -13 -94 -16 -52 -2 -99 -8 -105 -14 -7 -7 14
-8 68 -4 70 6 77 5 77 -11 0 -10 3 -29 7 -42 6 -23 5 -24 -50 -19 -32 3 -57 1
-57 -4 0 -15 -33 -8 -46 10 -10 13 -16 14 -22 5 -4 -7 -35 -15 -67 -18 -53 -6
-58 -5 -42 8 9 8 17 20 17 26 0 7 5 9 10 6 6 -3 10 -1 10 4 0 6 4 11 9 11 5 0
22 5 38 12 27 11 26 12 -27 18 -31 4 -60 3 -67 -3 -9 -6 -15 -4 -19 7 -9 24
-2 28 63 36 32 4 45 8 28 9 -36 2 -60 15 -52 28 13 21 171 52 247 49 22 -1 25
-5 24 -38z m431 22 c4 -6 12 -7 18 -3 19 12 177 11 177 -1 -1 -40 -44 -49
-227 -47 -82 2 -133 -1 -133 -7 0 -6 -11 -7 -27 -3 -37 10 -44 48 -12 59 33
12 197 13 204 2z m60 -70 c3 -5 1 -10 -4 -10 -6 0 -11 5 -11 10 0 6 2 10 4 10
3 0 8 -4 11 -10z m-4737 -7 c-21 -2 -57 -2 -80 0 -24 2 -7 4 37 4 44 0 63 -2
43 -4z m-183 -17 c-68 -22 -120 -53 -155 -93 -18 -21 -85 -92 -149 -158 -64
-66 -217 -227 -340 -357 -123 -131 -227 -238 -232 -238 -5 0 -9 4 -9 9 0 9
133 152 365 391 62 63 136 142 165 175 107 119 226 237 255 253 30 16 83 29
120 30 11 0 2 -5 -20 -12z m4708 8 c3 -4 80 -6 170 -6 150 1 164 -1 175 -18
10 -17 8 -20 -25 -29 -26 -8 -39 -7 -44 0 -5 8 -16 8 -40 0 -28 -8 -259 -31
-321 -31 -19 0 -31 29 -22 53 3 10 17 15 35 15 17 -1 35 4 41 10 13 13 22 15
31 6z m-1915 -57 c-13 -43 -28 -50 -20 -10 4 24 23 55 29 49 1 -1 -3 -19 -9
-39z m2475 26 c-7 -2 -19 -2 -25 0 -7 3 -2 5 12 5 14 0 19 -2 13 -5z m403 -32
c-3 -5 -68 -12 -143 -16 -76 -4 -144 -12 -150 -17 -7 -6 -13 -7 -13 -3 0 4 -7
2 -15 -5 -9 -8 -15 -8 -15 -2 0 13 -378 16 -455 4 -27 -4 -81 -5 -120 -1 l-70
6 75 2 c41 1 129 6 195 11 66 6 212 13 325 16 113 3 207 8 209 10 9 8 182 4
177 -5z m-6651 -21 c55 -1 58 -2 36 -14 -18 -10 -20 -15 -10 -19 20 -8 -35
-57 -64 -57 -12 -1 -33 -7 -47 -15 -37 -21 -53 -19 -40 5 6 11 18 20 27 20 9
0 14 3 11 6 -3 3 -22 2 -43 -2 -29 -5 -36 -10 -33 -28 3 -18 10 -21 56 -21 42
0 49 -2 37 -11 -19 -14 -92 -22 -295 -30 -149 -6 -156 -6 -174 15 -19 21 -19
21 7 21 14 0 29 -4 32 -10 7 -12 92 -12 120 0 11 5 14 9 7 9 -25 2 -2 19 30
24 22 3 45 -2 70 -17 41 -23 56 -18 36 13 -18 29 -1 43 70 57 l57 12 -60 1
c-40 1 -68 -4 -83 -15 -24 -17 -192 -31 -192 -16 0 12 40 48 75 67 25 14 52
16 170 11 77 -3 167 -6 200 -6z m-575 -13 c0 -16 -40 -54 -105 -101 -98 -70
-90 -68 -317 -72 -114 -2 -208 -1 -208 4 0 11 71 82 82 82 6 0 31 15 57 34 25
18 57 37 70 41 20 6 131 13 384 23 25 1 37 -2 37 -11z m4320 -17 c0 -5 -3 -10
-7 -10 -5 0 -13 -11 -20 -25 -7 -15 -7 -25 -1 -25 5 0 0 -12 -11 -26 -12 -15
-21 -33 -21 -40 0 -8 -8 -14 -17 -13 -11 0 -13 3 -5 6 6 2 12 13 12 24 0 10 5
19 10 19 6 0 10 8 10 18 0 24 29 82 41 82 5 0 9 -4 9 -10z m1863 3 c-7 -2 -19
-2 -25 0 -7 3 -2 5 12 5 14 0 19 -2 13 -5z m-150 -10 c-7 -2 -19 -2 -25 0 -7
3 -2 5 12 5 14 0 19 -2 13 -5z m-1789 -170 c-7 -26 -24 -47 -32 -38 -6 6 22
65 31 65 4 0 4 -12 1 -27z m-3704 -7 c0 -8 -4 -18 -10 -21 -5 -3 -10 -15 -10
-26 0 -10 -7 -19 -15 -19 -21 0 -55 -31 -48 -44 3 -6 2 -8 -2 -3 -11 10 -56
-33 -48 -46 3 -6 1 -7 -5 -3 -5 3 -12 1 -14 -6 -4 -12 -9 -13 -228 -22 -80 -4
-175 -8 -212 -11 -62 -3 -68 -2 -68 16 0 24 17 25 23 2 4 -14 5 -13 6 4 1 21
27 50 116 129 19 18 42 34 51 38 9 3 96 9 193 12 97 3 178 8 180 10 2 2 24 4
48 4 31 0 43 -4 43 -14z m30 0 c0 -3 -4 -8 -10 -11 -5 -3 -10 -1 -10 4 0 6 5
11 10 11 6 0 10 -2 10 -4z m9230 -38 c0 -24 -13 -29 -96 -39 -41 -5 -109 -13
-151 -19 -82 -10 -436 -51 -658 -75 -71 -8 -168 -19 -215 -25 -47 -6 -148 -17
-225 -25 -197 -20 -313 -33 -440 -51 -60 -8 -194 -19 -296 -24 -102 -6 -224
-14 -270 -20 -46 -5 -235 -18 -419 -29 -184 -11 -362 -23 -395 -26 -103 -10
-339 -25 -615 -40 -146 -8 -344 -19 -440 -25 -168 -9 -619 -39 -915 -60 -77
-6 -223 -15 -325 -20 -102 -6 -266 -17 -365 -25 -99 -7 -225 -17 -280 -20
-111 -6 -117 -7 -565 -35 -173 -11 -405 -24 -515 -30 -207 -10 -634 -36 -1145
-70 -364 -24 -953 -53 -977 -48 -10 2 81 9 202 17 121 7 357 21 525 32 168 10
463 28 655 39 193 11 413 24 490 30 77 5 219 14 315 20 96 6 216 12 265 15 50
3 113 8 140 10 28 3 158 12 290 20 132 8 337 22 455 30 118 8 251 17 295 20
214 14 1035 75 1070 80 118 15 439 37 645 46 303 12 465 23 620 43 69 8 231
20 360 25 359 16 1169 68 1315 86 72 8 173 20 225 26 209 22 473 50 610 64 80
8 174 19 210 25 36 5 119 14 185 20 214 20 377 40 396 51 10 5 19 20 19 32 0
18 2 19 10 7 5 -8 10 -23 10 -32z m-9866 10 c-3 -7 -82 -74 -176 -148 -94 -74
-191 -152 -215 -173 -77 -65 -70 -64 -419 -76 -434 -15 -440 -15 -423 5 7 8
60 50 118 92 58 42 168 122 243 179 76 56 148 105 160 108 25 6 417 21 600 23
90 2 116 -1 112 -10z m4274 -25 c-2 -5 -10 -21 -17 -38 -48 -107 -74 -156 -79
-151 -3 4 0 12 6 18 7 7 12 19 12 27 0 20 63 150 73 151 5 0 7 -3 5 -7z m-108
-243 c-8 -44 -16 -57 -27 -47 -3 4 -2 17 4 30 6 12 14 30 17 40 10 31 13 18 6
-23z m-3725 -460 c-49 -4 -180 -10 -290 -13 -196 -6 -197 -5 -45 3 85 5 180
11 210 13 30 2 91 3 135 4 l80 0 -90 -7z"/>
<path d="M6080 7675 l0 -85 95 0 95 0 0 85 0 85 -95 0 -95 0 0 -85z m126 10
c8 -20 -13 -45 -37 -45 -23 0 -32 15 -24 40 8 24 53 28 61 5z"/>
<path d="M8427 7343 c-11 -11 -8 -155 3 -148 6 3 10 22 10 42 0 20 3 33 7 30
3 -4 5 -32 4 -62 -1 -38 2 -55 11 -55 9 0 9 -3 0 -12 -7 -7 -13 -26 -13 -42
-1 -21 -3 -25 -6 -11 -10 39 -20 35 -21 -10 -2 -44 12 -62 21 -27 4 13 5 11 6
-5 0 -13 -3 -23 -7 -23 -12 0 -2 -107 13 -150 11 -32 13 -25 20 95 11 181 9
238 -8 308 -4 15 -9 38 -12 52 -5 25 -15 31 -28 18z"/>
<path d="M4673 7323 c-34 -7 -28 -16 27 -40 53 -23 63 -16 34 25 -15 22 -19
23 -61 15z"/>
<path d="M5186 7257 c-26 -11 -27 -14 -12 -26 25 -21 105 6 90 30 -7 12 -44
10 -78 -4z"/>
<path d="M6061 7254 c0 -11 3 -14 6 -6 3 7 2 16 -1 19 -3 4 -6 -2 -5 -13z"/>
<path d="M4520 7212 c0 -5 7 -13 16 -16 10 -4 14 -1 12 6 -5 15 -28 23 -28 10z"/>
<path d="M6013 7188 c-15 -20 -25 -38 -20 -38 3 0 12 11 21 25 17 26 16 35 -1
13z"/>
<path d="M8431 7154 c0 -11 3 -14 6 -6 3 7 2 16 -1 19 -3 4 -6 -2 -5 -13z"/>
<path d="M5966 7115 c33 -61 31 -58 38 -47 3 6 -3 21 -14 34 -11 12 -27 32
-36 43 -9 11 -4 -2 12 -30z"/>
<path d="M7942 7065 c0 -16 2 -22 5 -12 2 9 2 23 0 30 -3 6 -5 -1 -5 -18z"/>
<path d="M4570 7060 c0 -5 5 -10 10 -10 6 0 10 5 10 10 0 6 -4 10 -10 10 -5 0
-10 -4 -10 -10z"/>
<path d="M8030 6986 c0 -3 9 -20 20 -38 11 -18 20 -28 20 -21 0 6 3 19 7 29 4
11 3 15 -4 11 -6 -4 -19 0 -27 9 -9 8 -16 13 -16 10z"/>
<path d="M6951 6874 c0 -11 3 -14 6 -6 3 7 2 16 -1 19 -3 4 -6 -2 -5 -13z"/>
<path d="M7632 6815 c0 -16 2 -22 5 -12 2 9 2 23 0 30 -3 6 -5 -1 -5 -18z"/>
<path d="M5180 6738 c0 -17 2 -18 15 -8 8 7 15 14 15 15 0 2 -7 5 -15 9 -10 4
-15 -1 -15 -16z"/>
<path d="M7906 6745 c25 -19 40 -19 24 0 -7 8 -20 15 -28 15 -13 0 -12 -3 4
-15z"/>
<path d="M5355 6730 c3 -5 8 -10 11 -10 2 0 4 5 4 10 0 6 -5 10 -11 10 -5 0
-7 -4 -4 -10z"/>
<path d="M4830 6710 c0 -5 5 -10 10 -10 6 0 10 5 10 10 0 6 -4 10 -10 10 -5 0
-10 -4 -10 -10z"/>
<path d="M4973 6692 c-34 -5 -28 -22 7 -22 17 0 30 4 30 9 0 14 -11 18 -37 13z"/>
<path d="M6882 6510 c0 -14 2 -19 5 -12 2 6 2 18 0 25 -3 6 -5 1 -5 -13z"/>
<path d="M4737 6360 c-20 -4 -40 -10 -44 -13 -7 -8 51 -12 109 -9 20 1 39 -2
43 -8 8 -13 25 -13 25 0 0 24 -75 41 -133 30z"/>
<path d="M4827 6243 c-3 -10 -8 -31 -12 -48 -4 -16 -10 -32 -15 -35 -5 -3 0
-17 11 -30 15 -20 21 -22 28 -11 12 18 24 118 16 131 -10 15 -23 12 -28 -7z"/>
<path d="M4685 6180 c28 -12 78 -12 70 0 -3 6 -25 10 -48 9 -33 0 -38 -2 -22
-9z"/>
<path d="M7097 6103 c-3 -4 -1 -30 3 -56 4 -27 5 -60 2 -75 -3 -19 -1 -24 6
-17 16 14 20 147 5 152 -6 2 -13 0 -16 -4z"/>
<path d="M4417 6079 c-37 -21 -9 -80 49 -99 48 -16 54 -6 16 33 -18 18 -32 40
-32 49 0 23 -12 28 -33 17z"/>
<path d="M5171 5995 l2 -70 7 60 c4 33 3 64 -2 70 -4 5 -7 -22 -7 -60z"/>
<path d="M4130 5974 c0 -11 29 -34 42 -34 15 0 38 19 38 32 0 4 -18 8 -40 8
-22 0 -40 -3 -40 -6z"/>
<path d="M4600 5915 c-6 -16 -18 -34 -27 -40 -14 -11 -13 -14 7 -28 13 -9 29
-31 34 -49 9 -27 17 -34 44 -36 19 -2 32 1 32 8 0 15 -59 153 -70 164 -6 6
-14 -2 -20 -19z"/>
<path d="M4484 5884 c3 -9 6 -18 6 -20 0 -3 4 -3 10 1 11 7 2 35 -12 35 -6 0
-7 -7 -4 -16z"/>
<path d="M4730 5841 c0 -20 30 -33 50 -21 20 13 3 40 -25 40 -18 0 -25 -5 -25
-19z"/>
<path d="M4126 5831 c-29 -4 -51 -12 -54 -20 -4 -11 5 -12 44 -7 27 4 57 9 67
12 19 6 24 25 5 22 -7 0 -35 -4 -62 -7z"/>
<path d="M7067 5780 c-29 -23 -37 -46 -11 -36 8 3 13 2 10 -3 -3 -4 19 -25 48
-45 30 -20 62 -46 71 -56 21 -23 51 -26 71 -6 19 20 19 20 -26 77 -22 28 -43
57 -48 64 -4 8 -25 17 -47 20 -32 6 -45 3 -68 -15z"/>
<path d="M7203 5543 c9 -44 -4 -57 -52 -50 -50 6 -51 -1 -6 -31 30 -19 35 -28
35 -62 0 -21 -5 -42 -10 -45 -6 -4 -38 12 -73 34 -73 48 -98 54 -73 16 9 -13
16 -41 16 -61 0 -28 7 -43 33 -66 65 -59 104 -87 111 -81 14 15 4 35 -23 44
-35 12 -44 31 -27 55 13 17 15 17 40 1 14 -10 26 -24 26 -31 0 -17 22 -26 66
-26 33 0 47 14 22 22 -15 5 -36 106 -38 178 -1 64 -19 122 -39 128 -11 4 -13
-2 -8 -25z"/>
<path d="M7630 5560 c-9 -6 -10 -10 -3 -10 6 0 15 5 18 10 8 12 4 12 -15 0z"/>
<path d="M7808 5471 c-27 -9 -48 -18 -48 -21 0 -11 77 -28 105 -23 34 6 65 30
65 50 0 18 -62 15 -122 -6z"/>
<path d="M9048 5454 c-5 -4 -8 -23 -8 -43 1 -30 2 -33 11 -18 11 19 8 73 -3
61z"/>
<path d="M7362 5213 c-1 -12 -7 -34 -14 -48 -20 -44 25 -98 63 -74 11 7 8 14
-13 31 -21 18 -28 34 -31 68 -2 25 -4 35 -5 23z"/>
<path d="M7300 4993 c0 -22 2 -25 10 -13 13 20 13 40 0 40 -5 0 -10 -12 -10
-27z"/>
<path d="M8380 4986 c-14 -8 -60 -17 -102 -21 -61 -6 -84 -4 -109 9 -37 18
-65 21 -74 6 -10 -15 11 -37 43 -45 15 -3 45 -19 68 -35 61 -43 116 -63 145
-52 32 13 78 60 85 88 14 54 -10 75 -56 50z"/>
<path d="M8405 4743 c-191 -15 -289 -18 -304 -8 -14 8 -91 -4 -91 -15 0 -25
166 -43 387 -42 98 0 116 3 152 24 41 23 52 42 29 50 -7 2 -85 -2 -173 -9z"/>
<path d="M8380 4549 c-14 -6 -69 -9 -122 -7 -54 2 -98 1 -98 -3 0 -18 104 -49
170 -52 67 -2 73 0 96 26 36 43 14 60 -46 36z"/>
<path d="M4805 5560 c3 -5 8 -10 11 -10 2 0 4 5 4 10 0 6 -5 10 -11 10 -5 0
-7 -4 -4 -10z"/>
<path d="M4270 5409 c-36 -4 -106 -11 -155 -17 -85 -8 -135 -23 -135 -40 0 -4
-18 -27 -40 -51 -22 -25 -38 -47 -36 -49 3 -2 42 1 88 7 46 6 139 17 208 26
181 22 173 20 188 65 23 76 24 76 -118 59z"/>
<path d="M3247 4663 c-24 -23 9 -31 39 -8 18 14 18 14 -7 15 -14 0 -29 -3 -32
-7z"/>
<path d="M3825 4470 c-16 -7 -11 -9 22 -9 23 -1 45 4 48 9 8 12 -42 12 -70 0z"/>
<path d="M3665 3090 c-8 -12 121 -12 150 0 13 6 -7 9 -62 9 -45 1 -85 -3 -88
-9z"/>
<path d="M8390 2420 c0 -5 4 -10 9 -10 6 0 13 5 16 10 3 6 -1 10 -9 10 -9 0
-16 -4 -16 -10z"/>
<path d="M8018 2393 c7 -3 16 -2 19 1 4 3 -2 6 -13 5 -11 0 -14 -3 -6 -6z"/>
<path d="M7383 2373 c9 -2 23 -2 30 0 6 3 -1 5 -18 5 -16 0 -22 -2 -12 -5z"/>
<path d="M6580 2320 c0 -5 4 -10 9 -10 6 0 13 5 16 10 3 6 -1 10 -9 10 -9 0
-16 -4 -16 -10z"/>
<path d="M15055 7833 c-44 -9 -48 -13 -36 -27 20 -24 -19 -29 -40 -5 -10 11
-23 18 -29 14 -6 -4 -77 -7 -156 -6 -113 1 -143 -2 -138 -12 5 -8 2 -7 -9 2
-21 16 -106 6 -113 -14 -3 -8 -18 -12 -37 -10 -18 1 -45 -3 -62 -11 -16 -7
-52 -20 -80 -29 -87 -28 -216 -96 -214 -114 7 -76 -16 -112 -27 -42 l-6 39
-72 -57 c-70 -57 -148 -104 -216 -131 -110 -44 -280 -193 -280 -246 0 -11 -14
-33 -31 -50 -32 -30 -101 -156 -113 -207 -3 -15 -17 -51 -30 -80 -13 -28 -29
-77 -36 -107 -7 -30 -24 -75 -37 -99 -12 -24 -23 -57 -23 -72 0 -29 18 -80 33
-90 5 -3 2 -9 -6 -12 -10 -4 -18 -25 -22 -54 -10 -79 -15 -93 -35 -110 -14
-12 -16 -19 -8 -24 6 -4 13 -18 15 -31 2 -16 0 -19 -6 -9 -12 19 -31 5 -31
-25 0 -28 24 -33 39 -7 5 10 12 15 16 11 9 -8 -22 -37 -73 -67 -35 -21 -41
-30 -47 -69 -4 -25 -20 -82 -37 -126 -30 -80 -30 -84 -38 -351 -7 -252 -16
-382 -40 -596 -6 -48 -10 -111 -10 -140 0 -30 -5 -72 -10 -95 -14 -59 -21
-194 -10 -194 14 0 24 -69 13 -93 -7 -16 -6 -35 5 -66 11 -34 12 -45 2 -51 -7
-4 5 -7 25 -6 24 1 40 -4 43 -12 3 -10 -5 -13 -34 -10 -33 2 -39 0 -40 -17 0
-11 6 -28 14 -37 8 -10 11 -18 6 -18 -5 0 2 -7 14 -16 42 -29 53 -77 53 -233
0 -170 15 -179 25 -16 5 92 10 114 27 133 12 12 22 37 22 55 3 61 2 59 48 52
98 -15 115 -32 142 -145 41 -171 75 -288 99 -340 52 -113 138 -221 235 -299
91 -71 329 -141 483 -141 111 0 282 37 413 91 17 7 39 14 49 16 11 2 25 8 32
14 7 6 17 8 22 5 5 -3 31 21 56 54 42 53 70 80 50 48 -4 -7 -3 -8 4 -4 7 4 12
12 12 17 0 6 16 34 35 64 46 73 80 141 121 244 38 97 38 74 -1 -89 -12 -52
-26 -115 -30 -140 -9 -61 -63 -238 -75 -245 -5 -3 -16 -20 -25 -38 -9 -18 -32
-54 -53 -82 -20 -27 -61 -94 -89 -148 l-53 -99 9 -100 c9 -108 26 -146 72
-159 208 -58 304 -106 431 -212 111 -94 146 -116 193 -122 11 -1 45 -8 77 -15
l56 -12 94 47 c101 51 140 82 158 126 7 16 16 29 21 29 13 0 42 111 44 170 2
30 6 89 10 131 7 71 6 81 -20 135 -15 33 -31 70 -35 84 -5 14 -22 61 -39 105
-17 44 -40 116 -51 160 -20 83 -36 205 -28 205 3 0 17 -18 31 -39 29 -44 83
-102 89 -96 2 2 26 -8 54 -23 176 -94 225 -116 312 -140 88 -25 112 -27 262
-26 189 1 267 16 405 83 166 80 315 227 381 376 13 28 13 27 9 -30 -2 -33 -11
-94 -19 -136 -20 -104 -31 -249 -17 -229 6 8 11 22 11 31 0 10 13 48 29 85 20
48 33 102 41 174 14 122 15 126 24 162 5 18 2 34 -9 51 -15 23 -15 32 0 113 8
49 22 114 31 144 9 30 16 63 17 72 1 9 13 34 27 55 23 34 31 38 74 41 42 3 53
-1 79 -25 16 -15 36 -43 43 -60 8 -18 20 -32 26 -30 27 5 38 -252 13 -299 -8
-16 -15 -42 -15 -57 0 -15 -7 -44 -15 -64 -8 -19 -15 -42 -15 -50 0 -8 -18
-51 -39 -96 -52 -109 -82 -214 -83 -289 -1 -59 -8 -83 -59 -195 -10 -24 -19
-47 -19 -51 0 -5 -9 -17 -19 -26 -29 -26 -87 -12 -106 25 -14 26 -18 27 -40
17 -26 -12 -29 -25 -19 -76 5 -23 13 -31 34 -36 l29 -5 -40 -73 c-22 -40 -46
-79 -53 -88 -20 -22 -56 -89 -56 -103 0 -7 -9 -23 -19 -34 -11 -12 -33 -50
-49 -86 -16 -35 -34 -67 -40 -71 -6 -3 -25 -45 -43 -91 -17 -47 -36 -85 -40
-85 -5 0 -9 -6 -9 -12 0 -7 -23 -51 -51 -98 -28 -47 -76 -132 -106 -190 -49
-93 -117 -206 -132 -220 -4 -3 -12 -22 -19 -43 -8 -20 -29 -63 -48 -95 -18
-31 -41 -72 -50 -91 -9 -19 -27 -51 -40 -70 -13 -20 -24 -44 -24 -53 0 -10 -4
-18 -8 -18 -4 0 -13 -20 -20 -45 -7 -25 -16 -45 -22 -45 -5 0 -16 -13 -25 -30
-8 -16 -29 -46 -46 -65 -17 -19 -27 -35 -23 -35 5 0 -7 -10 -26 -21 -19 -12
-49 -36 -66 -54 -16 -18 -48 -44 -70 -57 -21 -14 -51 -38 -66 -53 -18 -18 -41
-28 -70 -32 -24 -2 -52 -8 -63 -12 -87 -34 -86 -34 -210 -50 -38 -5 -77 -11
-85 -14 -53 -20 -284 -32 -335 -18 -22 6 -41 7 -43 2 -1 -4 -26 -4 -55 1 -29
4 -81 10 -117 12 -36 3 -78 9 -93 15 -16 6 -40 11 -55 11 -33 0 -172 55 -310
122 -91 44 -112 60 -185 137 -45 47 -127 131 -182 186 -56 55 -119 125 -142
155 -49 65 -153 252 -153 274 0 8 -8 21 -18 28 -21 15 -66 92 -93 160 -17 44
-33 69 -69 106 -8 8 -15 23 -16 33 -2 25 -46 132 -61 147 -7 7 -13 19 -13 26
0 7 -18 45 -39 85 -22 39 -43 85 -47 103 -7 34 -26 83 -50 130 -8 14 -14 33
-14 42 0 19 -39 146 -50 161 -7 10 -29 87 -34 117 -1 10 -5 21 -9 24 -4 4 -7
18 -7 31 0 13 -10 43 -21 66 -12 23 -32 70 -44 104 -12 35 -24 60 -28 57 -3
-3 -9 11 -12 32 -10 55 -45 174 -61 206 -8 14 -14 38 -14 51 0 14 -4 29 -10
32 -5 3 -10 16 -10 28 0 13 -7 33 -16 45 -9 13 -13 31 -9 42 4 11 -3 47 -14
80 -12 33 -21 74 -21 90 0 42 -13 37 -40 -15 -25 -49 -27 -39 21 -137 5 -10 9
-23 9 -29 0 -6 6 -25 14 -42 20 -47 43 -116 56 -167 6 -25 24 -90 41 -145 17
-55 35 -118 41 -140 5 -22 16 -60 24 -85 8 -25 17 -68 20 -96 6 -46 4 -53 -17
-68 -46 -32 -126 -14 -191 44 -32 28 -59 67 -93 135 -28 56 -51 92 -57 88 -6
-3 -9 -2 -5 3 10 17 -22 127 -76 265 -30 75 -64 169 -76 210 -13 41 -29 91
-37 112 -8 20 -14 55 -14 77 0 21 -5 42 -11 46 -7 4 -9 25 -4 61 4 36 3 59 -5
68 -12 15 -8 114 6 149 5 14 4 17 -4 12 -7 -4 -12 -13 -12 -21 0 -7 -7 -15
-15 -19 -12 -4 -15 -23 -14 -88 0 -46 -2 -91 -6 -101 -7 -16 18 -113 50 -197
8 -19 26 -75 40 -124 22 -73 25 -90 14 -98 -11 -8 -11 -9 1 -6 15 5 59 -77 64
-119 1 -12 7 -28 13 -35 10 -12 27 -58 25 -68 0 -3 7 -13 16 -23 9 -10 12 -18
7 -17 -24 5 -25 -2 -7 -32 11 -19 18 -48 17 -68 -2 -23 6 -48 23 -75 14 -22
44 -83 67 -135 36 -84 47 -99 89 -127 61 -42 118 -44 175 -8 22 13 42 29 46
35 10 16 54 12 63 -7 5 -10 14 -40 21 -66 6 -27 18 -59 25 -70 19 -30 36 -117
36 -181 0 -39 5 -57 18 -69 10 -10 22 -15 25 -12 4 3 5 2 2 -2 -3 -3 1 -16 8
-27 8 -12 20 -46 26 -76 7 -30 29 -102 49 -160 l36 -105 1 -330 c0 -181 6
-469 13 -640 13 -346 8 -613 -13 -660 -7 -16 -21 -57 -31 -90 -9 -33 -20 -64
-25 -69 -5 -6 -9 -28 -9 -51 0 -23 -4 -45 -9 -51 -5 -5 -16 -34 -26 -64 -10
-30 -31 -72 -47 -92 l-30 -38 2134 1 c1173 1 2118 5 2100 9 -18 4 -94 11 -170
15 -114 6 -142 11 -167 28 -53 35 -165 151 -165 169 0 10 -4 18 -9 18 -5 0
-22 26 -36 57 -15 32 -45 94 -66 138 -22 44 -39 89 -39 101 0 19 -22 96 -40
139 -13 31 -37 114 -50 170 -37 163 -41 214 -37 523 5 344 13 425 62 637 13
56 31 141 39 191 2 12 8 30 14 40 5 11 27 69 47 129 20 61 45 124 55 140 10
17 46 84 79 150 34 66 83 157 110 203 58 99 104 250 149 492 11 58 43 173 72
255 28 83 55 170 60 195 5 25 14 65 20 90 15 57 7 228 -14 294 -31 96 -15 179
69 356 30 63 57 133 61 155 4 22 18 62 30 90 13 27 24 58 24 67 0 9 -16 47
-35 84 -41 78 -45 129 -15 162 16 17 19 32 16 72 -2 28 -7 54 -10 57 -10 10
-7 61 4 68 14 9 10 184 -4 209 -6 11 -28 35 -49 54 -36 34 -38 39 -32 78 4 31
2 43 -9 47 -17 7 -15 64 3 110 12 30 4 107 -10 107 -5 0 -6 7 -3 15 3 8 -6 40
-21 72 -15 32 -46 108 -69 168 -52 137 -88 191 -221 330 -57 61 -105 118 -105
127 0 35 -25 70 -62 89 -21 11 -38 26 -38 33 0 8 -18 36 -40 62 -22 27 -40 55
-40 62 0 7 -17 20 -37 28 -57 24 -93 62 -93 100 0 39 -34 84 -64 84 -23 0 -56
28 -56 48 0 6 -17 24 -37 41 -30 25 -47 31 -85 31 -53 0 -62 8 -48 44 11 31 0
41 -50 41 -27 0 -37 5 -45 22 -12 27 -58 48 -100 44 -26 -2 -35 4 -55 36 -24
35 -27 37 -75 35 -62 -2 -119 23 -123 56 -2 13 -10 22 -20 22 -9 0 -57 21
-106 45 -50 25 -91 45 -93 45 -2 0 -3 -6 -3 -14 0 -18 -49 -18 -77 0 -13 8
-23 22 -23 32 0 10 -11 34 -25 54 -14 20 -25 44 -25 52 0 13 -13 16 -61 16
-50 0 -60 -3 -55 -15 3 -9 0 -15 -10 -15 -10 0 -14 -6 -10 -15 3 -8 1 -15 -5
-15 -6 0 -17 -7 -25 -15 -23 -23 -46 -8 -39 26 4 16 2 29 -3 29 -5 0 -12 -14
-16 -31 -3 -16 -13 -37 -21 -45 -13 -14 -20 -12 -63 16 -31 20 -53 43 -60 63
-8 21 -19 33 -32 34 -11 1 -20 -2 -20 -8 0 -5 -7 -9 -15 -9 -8 0 -15 5 -15 10
0 6 -7 10 -15 10 -8 0 -15 5 -15 10 0 6 -11 15 -25 20 -14 5 -25 14 -25 20 0
5 -4 10 -10 10 -5 0 -10 -11 -10 -25 0 -14 -4 -25 -9 -25 -5 0 -23 11 -39 25
-17 14 -36 25 -44 25 -8 0 -24 9 -36 20 -21 20 -29 22 -67 13z m55 -113 c8 -5
11 -12 7 -16 -4 -4 -15 0 -24 9 -18 18 -8 23 17 7z m-645 -60 c3 -5 -1 -10 -9
-10 -9 0 -16 5 -16 10 0 6 4 10 9 10 6 0 13 -4 16 -10z m62 -5 c30 -15 62 -45
49 -45 -14 0 -63 29 -75 44 -17 20 -12 20 26 1z m127 -15 l15 -30 -28 22 c-16
13 -26 26 -24 31 9 15 22 6 37 -23z m-330 -127 c10 -32 5 -29 -37 21 -23 28
-35 51 -31 61 5 12 12 7 34 -22 15 -21 31 -48 34 -60z m113 81 c-3 -3 -12 -4
-19 -1 -8 3 -5 6 6 6 11 1 17 -2 13 -5z m-9 -55 c3 -34 4 -34 -48 -13 -40 16
-40 16 -18 33 31 26 63 16 66 -20z m-308 -44 c7 -9 8 -15 2 -15 -5 0 -12 7
-16 15 -3 8 -4 15 -2 15 2 0 9 -7 16 -15z m305 -15 c3 -5 1 -10 -4 -10 -6 0
-11 5 -11 10 0 6 2 10 4 10 3 0 8 -4 11 -10z m-220 -58 c-6 -7 -45 9 -45 18 0
4 11 3 24 -3 14 -7 23 -13 21 -15z m97 -39 c17 -15 16 -33 -3 -33 -5 0 -24 14
-42 31 l-32 32 30 -7 c17 -4 38 -15 47 -23z m902 2 c3 -8 1 -15 -4 -15 -6 0
-10 7 -10 15 0 8 2 15 4 15 2 0 6 -7 10 -15z m-1254 -31 c0 -15 23 -24 60 -24
22 0 60 -21 60 -33 0 -1 -30 -3 -68 -3 -37 -1 -85 -8 -107 -16 -37 -14 -42
-14 -67 4 -49 34 -29 74 38 80 64 6 84 4 84 -8z m1000 -20 c0 -2 -7 -4 -15 -4
-8 0 -15 4 -15 10 0 5 7 7 15 4 8 -4 15 -8 15 -10z m127 -43 c30 -21 29 -31
-3 -31 -26 0 -54 20 -54 39 0 5 -6 11 -12 14 -7 2 0 2 17 -1 16 -2 40 -12 52
-21z m702 0 c19 -12 -31 -37 -79 -39 l-35 -1 45 24 c52 28 51 28 69 16z m-184
-31 c-3 -5 -14 -10 -23 -10 -15 0 -15 2 -2 10 20 13 33 13 25 0z m-1755 -35
c0 -8 -4 -15 -10 -15 -5 0 -10 -7 -10 -15 0 -13 -3 -13 -20 -3 -23 14 -27 40
-6 32 8 -3 17 -1 21 5 9 16 25 13 25 -4z m-185 -215 c3 -6 -1 -7 -9 -4 -18 7
-21 14 -7 14 6 0 13 -4 16 -10z m2814 -2 c-4 -32 4 -36 81 -42 50 -5 86 -13
95 -22 22 -22 19 -24 -27 -18 -24 3 -67 -1 -96 -9 -29 -8 -54 -11 -56 -8 -9
14 -9 111 -1 111 3 0 5 -6 4 -12z m-2774 -46 c-3 -3 -26 -13 -52 -22 -70 -24
-67 -40 9 -40 l63 -1 -30 -16 c-16 -9 -33 -20 -36 -26 -4 -5 -9 -5 -13 2 -4 6
-12 9 -17 5 -5 -3 -7 -10 -4 -15 4 -5 1 -9 -4 -9 -6 0 -11 5 -11 11 0 5 -5 7
-10 4 -6 -4 -9 -1 -8 7 2 8 -8 14 -24 16 -19 2 -28 -1 -28 -11 0 -8 -24 -23
-59 -36 -63 -23 -91 -26 -91 -11 0 13 28 27 73 35 27 5 37 12 33 21 -3 8 1 14
9 14 7 0 26 5 40 10 22 8 25 13 16 24 -19 23 22 54 71 54 22 1 43 3 46 6 3 3
11 1 19 -6 7 -6 11 -13 8 -16z m1971 -217 c-11 -8 -29 -15 -40 -15 -19 1 -19
2 4 15 35 20 62 19 36 0z m-96 -5 c0 -5 -5 -10 -11 -10 -5 0 -7 5 -4 10 3 6 8
10 11 10 2 0 4 -4 4 -10z m-1681 -19 c19 -12 -31 -37 -79 -39 l-35 -1 45 24
c52 28 51 28 69 16z m751 -36 c0 -38 17 -38 24 0 9 48 36 47 36 0 0 -19 5 -35
10 -35 6 0 10 11 10 25 0 28 7 30 33 10 14 -10 17 -22 13 -47 -3 -18 -3 -27 0
-20 9 20 21 14 28 -14 5 -20 10 -23 20 -15 7 6 15 8 19 5 3 -3 14 7 23 22 l18
27 6 -24 c5 -20 13 -25 50 -27 l43 -3 -44 -30 c-37 -24 -40 -29 -21 -29 16 0
21 4 16 13 -6 9 -5 9 7 0 8 -6 39 -12 69 -13 82 -2 90 -4 90 -13 0 -4 8 -7 18
-5 9 1 24 -2 32 -7 8 -5 55 -10 105 -11 290 -9 283 -8 298 -29 11 -14 18 -17
28 -8 8 6 22 7 34 2 11 -4 44 -8 74 -8 30 -1 81 -10 112 -22 43 -15 63 -17 77
-10 11 6 36 8 56 4 21 -3 42 -1 50 6 9 8 16 8 20 2 4 -6 13 -8 21 -4 8 3 15 0
15 -5 0 -6 16 -14 37 -18 20 -4 67 -24 104 -45 38 -22 71 -39 75 -39 3 0 23
-13 43 -28 39 -31 97 -62 115 -62 6 0 27 -11 46 -23 19 -13 41 -23 48 -21 7 1
8 0 2 -3 -6 -3 1 -16 17 -31 29 -27 97 -39 119 -21 8 6 10 2 7 -13 -3 -17 10
-38 44 -75 67 -73 95 -110 134 -173 18 -30 38 -58 43 -62 6 -4 7 -8 2 -8 -4 0
-2 -10 7 -23 8 -12 18 -37 21 -55 4 -18 14 -32 22 -32 9 0 14 -11 14 -30 0
-16 11 -53 24 -82 13 -29 28 -69 35 -88 37 -120 42 -143 37 -166 -4 -13 -2
-33 3 -42 6 -10 12 -41 15 -68 7 -59 16 -96 49 -194 14 -41 30 -118 36 -170
13 -115 18 -326 8 -336 -4 -4 -39 5 -77 20 -55 22 -68 31 -60 41 8 10 0 22
-31 49 -24 20 -50 36 -59 36 -23 0 -32 11 -19 26 14 17 0 24 -63 31 -29 3 -61
13 -71 21 -19 17 -122 20 -210 7 -38 -6 -52 -4 -67 10 -18 16 -30 17 -147 6
-70 -7 -145 -17 -167 -22 -21 -6 -50 -7 -65 -3 -61 16 -150 -3 -134 -29 3 -5
1 -7 -5 -3 -6 3 -19 -5 -30 -19 -23 -29 -32 -32 -32 -9 0 12 -9 8 -35 -15 -35
-30 -51 -40 -41 -23 2 4 1 14 -3 21 -6 10 -15 6 -37 -16 -15 -15 -29 -27 -31
-25 -11 9 -25 -6 -64 -65 -24 -38 -48 -73 -54 -79 -5 -6 -20 -23 -32 -38 -24
-28 -38 -29 -368 -31 -38 0 -80 -6 -91 -12 -17 -10 -25 -9 -40 2 -22 16 -70
20 -79 6 -3 -5 -18 -9 -33 -9 -15 0 -31 -1 -37 -3 -17 -5 -86 34 -168 95 -64
47 -76 60 -66 72 6 8 20 14 29 14 14 0 18 7 17 32 -1 17 -8 33 -15 36 -7 2
-10 -2 -7 -10 4 -9 -4 -13 -26 -13 -32 0 -69 33 -69 61 0 8 -6 14 -13 14 -7 0
-24 11 -39 25 -15 14 -39 30 -53 35 -24 9 -25 8 -14 -11 9 -17 8 -25 -4 -37
-17 -16 -19 -16 -182 43 -27 10 -57 20 -65 23 -10 3 -7 7 10 11 l25 7 -25 7
c-39 11 -77 8 -92 -6 -7 -7 -22 -16 -33 -21 -16 -6 -17 -9 -5 -16 12 -7 12
-10 -3 -16 -10 -4 -23 -2 -29 4 -7 7 -19 7 -34 2 -18 -7 -22 -6 -18 4 3 8 0
17 -7 22 -9 5 -8 10 7 16 14 6 13 7 -6 2 -14 -3 -51 -8 -82 -11 -32 -3 -58 -7
-58 -8 0 -2 3 -10 6 -19 5 -12 10 -13 26 -5 11 6 23 8 26 4 3 -3 -4 -8 -16
-12 -12 -3 -19 -10 -16 -15 4 -6 -2 -7 -15 -3 -13 4 -34 4 -48 0 -21 -5 -23
-8 -12 -21 17 -20 5 -29 -14 -9 -17 17 -63 20 -72 5 -3 -6 1 -13 9 -16 9 -3
16 -10 16 -15 0 -11 -42 9 -52 24 -4 7 -22 6 -52 -3 -44 -12 -62 -30 -30 -30
8 0 12 -5 8 -11 -3 -6 -15 -9 -25 -6 -11 3 -23 -2 -28 -11 -5 -9 -12 -14 -16
-11 -3 4 -25 1 -48 -6 -37 -11 -42 -15 -39 -38 5 -41 -34 -72 -129 -101 -97
-31 -215 -53 -225 -43 -13 12 18 349 36 402 10 28 22 64 28 80 47 135 76 311
59 358 -6 20 -6 36 2 54 6 14 14 47 17 75 3 27 12 64 19 82 8 19 12 36 9 39
-3 3 6 28 20 56 14 28 26 58 26 67 0 10 11 32 25 50 14 18 25 41 25 52 0 11 6
25 14 31 8 6 20 26 27 44 7 18 33 66 58 107 64 107 116 151 196 165 22 4 48
15 59 24 10 9 20 14 23 12 6 -4 128 103 158 138 46 55 88 92 104 89 33 -4 97
14 129 38 17 14 37 22 42 19 6 -4 22 0 35 9 13 9 35 16 47 16 16 0 19 3 10 8
-9 6 -6 12 13 22 14 7 28 10 31 7 4 -4 19 2 34 13 16 11 33 20 38 20 5 0 12 7
16 15 3 8 10 15 15 15 6 0 29 18 53 39 40 38 42 41 28 65 -12 24 -11 28 15 56
31 32 45 31 45 -5z m-935 5 c-3 -5 -14 -10 -23 -10 -15 0 -15 2 -2 10 20 13
33 13 25 0z m-325 -109 c0 -5 -16 -23 -36 -40 -20 -18 -32 -36 -28 -43 4 -7 3
-8 -5 -4 -17 11 -3 47 28 73 28 24 41 28 41 14z m831 -44 c-11 -18 -29 -41
-40 -51 -11 -10 -19 -22 -17 -25 8 -13 -49 -68 -76 -75 -34 -8 -34 -6 -3 30
34 40 33 62 -1 35 -15 -12 -38 -21 -52 -21 -21 0 -14 8 43 50 37 28 71 50 76
50 4 0 14 6 21 13 28 27 63 47 66 37 2 -5 -6 -25 -17 -43z m956 17 c-3 -3 -12
-4 -19 -1 -8 3 -5 6 6 6 11 1 17 -2 13 -5z m1708 -34 c8 -13 -5 -13 -25 0 -13
8 -13 10 2 10 9 0 20 -4 23 -10z m-2408 -6 c-3 -3 -12 -4 -19 -1 -8 3 -5 6 6
6 11 1 17 -2 13 -5z m2157 -101 c10 -32 5 -29 -37 21 -23 28 -35 51 -31 61 5
12 12 7 34 -22 15 -21 31 -48 34 -60z m113 81 c-3 -3 -12 -4 -19 -1 -8 3 -5 6
6 6 11 1 17 -2 13 -5z m-9 -55 c3 -34 4 -34 -48 -13 -40 16 -40 16 -18 33 31
26 63 16 66 -20z m-3 -59 c3 -5 1 -10 -4 -10 -6 0 -11 5 -11 10 0 6 2 10 4 10
3 0 8 -4 11 -10z m545 -205 c0 -9 -6 -12 -15 -9 -8 4 -15 10 -15 15 0 5 7 9
15 9 8 0 15 -7 15 -15z m166 -30 c14 -13 13 -15 -5 -15 -12 0 -21 6 -21 15 0
8 3 15 6 15 3 0 12 -7 20 -15z m-432 -60 c3 -9 18 -15 36 -15 16 0 30 -4 30
-10 0 -5 -13 -10 -30 -10 -16 0 -30 5 -30 10 0 6 -7 10 -15 10 -8 0 -15 7 -15
15 0 8 4 15 9 15 5 0 11 -7 15 -15z m146 -55 c0 -5 11 -10 23 -10 13 0 34 -9
47 -20 13 -11 27 -20 32 -20 5 0 3 -7 -6 -15 -15 -16 -46 -21 -46 -7 0 4 -13
13 -30 19 -16 6 -30 18 -30 27 0 9 -7 16 -15 16 -8 0 -15 5 -15 10 0 6 9 10
20 10 11 0 20 -4 20 -10z m259 -831 c-5 -10 -13 -20 -17 -20 -4 -1 -17 -3 -28
-4 -12 -1 -34 -5 -50 -9 l-29 -6 30 16 c17 9 32 20 35 24 10 14 44 28 57 23 9
-4 10 -10 2 -24z m-164 -19 c-3 -5 -11 -10 -16 -10 -6 0 -7 5 -4 10 3 6 11 10
16 10 6 0 7 -4 4 -10z m155 -542 c0 -17 3 -18 15 -8 12 10 16 9 21 -4 6 -16
-30 -76 -46 -76 -15 0 -23 21 -11 33 15 15 14 27 -3 21 -19 -7 -30 14 -17 30
6 7 8 16 5 19 -3 3 -3 11 1 17 10 16 35 -7 35 -32z m-1160 -24 c-47 -7 -100
-15 -117 -18 -18 -2 -33 -1 -33 4 0 10 40 20 128 29 102 10 119 -1 22 -15z
m-2284 5 c11 -19 -11 -30 -80 -40 -103 -14 -116 9 -20 36 62 17 91 18 100 4z
m433 5 c17 -4 31 -10 31 -15 0 -11 -182 1 -194 12 -11 10 115 12 163 3z m-659
-24 c0 -16 -7 -20 -35 -20 -37 0 -43 8 -23 28 20 20 58 15 58 -8z m539 -48 c3
-5 59 -22 124 -37 83 -19 117 -31 117 -42 0 -8 4 -12 9 -9 5 4 12 0 15 -6 5
-10 7 -10 12 -1 4 9 11 10 25 2 11 -5 24 -7 30 -4 5 4 16 1 24 -5 8 -6 19 -9
24 -5 27 16 142 -88 181 -165 56 -110 65 -312 21 -448 -24 -72 -87 -186 -133
-238 -63 -71 -206 -165 -288 -189 -14 -4 -32 -13 -40 -20 -20 -17 -75 -25
-200 -29 -126 -3 -175 5 -278 48 -152 63 -267 161 -339 287 -141 249 -143 554
-3 712 73 83 227 141 422 157 118 10 269 5 277 -8z m2421 -57 c25 -2 48 -4 51
-4 3 -1 5 -15 5 -33 -1 -23 5 -35 19 -43 11 -5 36 -22 56 -37 20 -16 40 -28
45 -28 39 0 92 -28 130 -67 36 -37 47 -43 59 -33 11 9 18 3 39 -37 15 -29 25
-41 26 -29 0 33 12 9 24 -51 20 -101 -11 -290 -68 -415 -14 -29 -47 -80 -75
-113 -28 -33 -64 -78 -81 -100 -43 -58 -61 -75 -80 -75 -16 0 -121 -44 -215
-90 -44 -22 -157 -44 -183 -36 -9 3 -66 10 -127 16 -206 21 -371 96 -496 227
-84 89 -119 157 -154 297 -23 88 -27 123 -23 193 5 92 21 119 63 109 15 -4 27
6 50 39 42 62 118 116 200 142 39 12 96 32 129 43 75 27 206 37 286 21 146
-29 280 -86 280 -120 0 -18 -65 -8 -124 18 -22 10 -54 21 -70 25 -15 4 -41 17
-58 29 -27 20 -41 22 -131 21 -76 -1 -117 -7 -162 -23 -33 -12 -91 -31 -130
-43 -42 -13 -90 -38 -119 -60 -48 -38 -86 -79 -86 -94 0 -10 182 5 197 17 8 8
20 6 40 -4 41 -22 196 -48 293 -49 79 -1 90 1 162 36 43 20 90 38 104 39 46 3
38 -20 -13 -37 -57 -20 -89 -41 -74 -51 6 -3 23 3 37 14 15 12 35 21 46 21 10
0 36 6 58 12 30 10 40 18 40 34 0 27 22 56 39 52 8 -2 17 8 21 22 4 16 13 24
24 23 12 -1 15 4 10 15 -12 29 -24 104 -18 113 3 5 -7 9 -23 10 -15 0 -22 3
-15 6 6 2 12 9 12 14 0 6 -7 6 -17 1 -27 -14 -184 -2 -190 14 -3 8 -16 14 -29
14 -17 0 -22 4 -18 15 4 8 10 12 15 9 5 -3 9 2 9 10 0 15 40 16 210 1z m-896
-16 c-11 -18 -126 -89 -135 -83 -18 11 -8 23 49 58 56 35 100 47 86 25z m424
-232 c4 -31 -14 -43 -53 -33 -28 7 -40 27 -31 52 4 11 17 14 43 12 33 -3 38
-7 41 -31z m-1143 -2 c-13 -14 -33 -36 -45 -48 l-20 -21 0 27 c0 34 32 67 65
67 l24 0 -24 -25z m319 9 c9 -3 14 -9 12 -13 -3 -4 8 -15 23 -26 31 -20 51
-65 51 -113 0 -33 16 -121 30 -162 4 -14 16 -52 25 -85 10 -33 25 -76 35 -95
11 -24 17 -66 19 -135 3 -141 17 -260 35 -287 8 -13 27 -72 41 -133 15 -60 36
-129 47 -152 14 -29 19 -52 14 -75 -6 -30 -9 -33 -44 -34 -21 -1 -57 -11 -79
-22 -22 -12 -51 -23 -64 -26 -13 -2 -37 -9 -53 -16 -16 -6 -81 -12 -143 -13
-62 -1 -113 -5 -113 -9 0 -27 -127 12 -235 71 -36 19 -226 21 -249 2 -23 -19
-46 -2 -46 34 0 19 5 37 10 40 6 3 10 17 10 31 0 29 29 88 59 123 12 14 20 30
17 37 -3 7 4 20 15 30 10 9 19 22 19 27 0 6 15 25 34 42 21 19 39 48 46 74 6
23 20 57 31 74 10 18 19 46 19 64 0 17 5 35 10 38 6 3 10 23 10 43 1 20 7 55
15 77 8 22 15 55 15 73 0 17 5 32 10 32 6 0 10 19 10 43 0 23 8 80 17 125 15
74 16 85 3 95 -12 9 -14 27 -10 79 6 78 28 108 94 132 41 15 229 22 260 10z
m104 -6 c7 -7 12 -25 12 -41 0 -25 -2 -28 -15 -17 -8 7 -15 18 -15 26 0 7 -7
20 -16 28 -14 15 -14 16 3 16 11 0 24 -5 31 -12z m-1683 -2528 c3 -5 1 -10 -4
-10 -6 0 -11 5 -11 10 0 6 2 10 4 10 3 0 8 -4 11 -10z m53 -110 c34 -113 46
-147 59 -167 7 -13 11 -23 8 -23 -3 0 4 -17 15 -37 11 -21 20 -45 20 -53 0 -8
10 -31 23 -50 13 -19 32 -61 43 -94 10 -32 25 -61 31 -63 7 -3 15 -21 19 -41
3 -21 19 -53 34 -73 16 -20 42 -66 59 -103 17 -37 42 -81 56 -97 14 -17 25
-36 25 -43 0 -7 9 -21 20 -31 11 -10 20 -30 20 -45 0 -15 11 -44 25 -64 33
-48 57 -96 49 -96 -3 0 1 -11 10 -25 9 -13 16 -33 16 -45 0 -11 5 -20 10 -20
17 0 60 -51 60 -70 0 -10 7 -20 15 -24 9 -3 12 -12 8 -22 -6 -16 -7 -16 -18 0
-16 22 -24 20 -18 -4 3 -10 14 -22 25 -26 16 -5 18 -8 7 -15 -11 -7 -9 -9 6
-9 11 0 27 -5 35 -10 12 -7 8 -11 -17 -16 -33 -6 -46 -35 -23 -49 19 -12 0
-26 -20 -15 -21 11 -110 9 -110 -2 0 -5 -7 -8 -15 -8 -8 0 -15 7 -15 15 0 8
-8 15 -17 15 -15 0 -16 -2 -3 -10 8 -5 11 -10 5 -10 -5 0 -23 11 -39 25 -16
14 -35 25 -42 25 -8 0 -16 11 -20 25 -3 13 -12 29 -20 36 -8 7 -12 20 -8 31 4
14 0 21 -14 25 -19 4 -50 58 -44 75 1 5 -4 7 -11 5 -6 -1 -12 5 -12 13 0 8 -6
21 -13 28 -7 8 -10 18 -7 23 4 5 1 9 -4 9 -6 0 -10 3 -10 8 3 19 -2 33 -10 28
-5 -3 -14 1 -21 9 -7 8 -9 15 -5 15 3 0 -3 12 -14 26 -11 15 -18 30 -15 35 3
5 0 9 -6 9 -6 0 -10 6 -9 13 4 22 -20 89 -36 101 -8 6 -18 25 -21 41 -3 17
-14 50 -25 74 -22 50 -24 81 -6 82 8 0 8 2 1 5 -7 3 -10 14 -7 24 3 12 0 20
-6 20 -7 0 -9 4 -6 10 3 5 -3 27 -13 49 -11 21 -16 45 -12 52 13 23 -1 119
-16 119 -8 0 -14 7 -14 15 0 8 5 15 11 15 13 0 8 101 -6 134 -6 15 -5 17 5 11
10 -6 11 -3 6 16 -10 29 -27 147 -31 207 -1 23 -5 45 -8 48 -3 4 0 12 6 19 9
10 15 7 28 -14 9 -15 21 -42 27 -61z m147 -119 l20 -24 -22 14 c-13 8 -23 20
-23 28 0 8 1 12 3 10 1 -2 11 -15 22 -28z m45 -56 c13 -14 21 -25 18 -25 -2 0
-15 11 -28 25 -13 14 -21 25 -18 25 2 0 15 -11 28 -25z m170 -160 c47 -47 82
-85 80 -85 -3 0 -43 38 -90 85 -47 47 -82 85 -80 85 3 0 43 -38 90 -85z m135
-145 c10 -11 16 -20 13 -20 -3 0 -13 9 -23 20 -10 11 -16 20 -13 20 3 0 13 -9
23 -20z m55 -45 c13 -14 21 -25 18 -25 -2 0 -15 11 -28 25 -13 14 -21 25 -18
25 2 0 15 -11 28 -25z m101 -72 c13 -16 12 -17 -3 -4 -10 7 -18 15 -18 17 0 8
8 3 21 -13z m-668 -87 c6 -15 -1 -55 -13 -71 -4 -5 -11 -24 -14 -42 -4 -17
-14 -37 -23 -45 -14 -11 -15 -6 -11 52 2 44 10 74 23 92 23 31 31 34 38 14z
m2597 -121 c0 -8 9 -15 20 -15 11 0 20 -7 20 -15 0 -8 9 -15 20 -15 16 0 20
-7 20 -30 0 -20 5 -30 15 -30 12 0 15 -17 15 -95 0 -88 1 -95 20 -95 19 0 20
-7 20 -125 0 -118 -1 -125 -20 -125 -11 0 -20 -7 -20 -15 0 -12 -13 -15 -55
-15 l-55 0 0 75 c0 60 -3 75 -15 75 -8 0 -15 5 -15 10 0 6 -9 10 -20 10 -16 0
-20 7 -20 30 0 23 -4 30 -20 30 -15 0 -20 7 -20 25 0 16 -6 25 -15 25 -13 0
-15 24 -15 155 l0 155 70 0 c56 0 70 -3 70 -15z m-1985 -692 c50 -54 14 -61
-42 -8 l-37 35 27 0 c16 0 36 -11 52 -27z m95 -27 c0 -2 -11 -6 -25 -8 -13 -3
-22 -1 -19 3 5 9 44 13 44 5z"/>
<path d="M16553 4783 c9 -2 25 -2 35 0 9 3 1 5 -18 5 -19 0 -27 -2 -17 -5z"/>
<path d="M16688 4783 c7 -3 16 -2 19 1 4 3 -2 6 -13 5 -11 0 -14 -3 -6 -6z"/>
<path d="M14660 4748 c0 -15 39 -68 40 -54 0 5 8 2 17 -5 10 -8 2 5 -17 29
-36 45 -40 48 -40 30z"/>
<path d="M15681 4674 c0 -11 3 -14 6 -6 3 7 2 16 -1 19 -3 4 -6 -2 -5 -13z"/>
<path d="M14701 4634 c0 -11 3 -14 6 -6 3 7 2 16 -1 19 -3 4 -6 -2 -5 -13z"/>
<path d="M13580 4630 c-18 -12 -2 -12 25 0 13 6 15 9 5 9 -8 0 -22 -4 -30 -9z"/>
<path d="M15681 4594 c0 -11 3 -14 6 -6 3 7 2 16 -1 19 -3 4 -6 -2 -5 -13z"/>
<path d="M14270 4440 l-105 -5 90 -13 c50 -7 117 -20 150 -28 76 -20 198 -52
222 -60 10 -3 14 -2 8 3 -6 4 -16 20 -24 34 -7 15 -34 37 -59 49 -50 25 -100
29 -282 20z"/>
<path d="M13965 4405 c-5 -2 -44 -13 -85 -25 -105 -31 -171 -64 -222 -110 -62
-58 -23 -53 73 8 81 52 142 81 234 111 34 12 49 20 35 20 -14 0 -29 -2 -35 -4z"/>
<path d="M14175 4339 c-71 -7 -182 -35 -240 -59 -19 -8 -72 -24 -160 -49 -22
-6 -55 -24 -74 -41 -30 -27 -31 -30 -12 -30 11 0 21 6 22 13 0 6 6 1 12 -13
21 -45 35 -54 63 -41 14 6 35 11 48 11 12 0 31 7 42 15 21 16 84 20 84 5 0 -5
6 -7 13 -4 8 3 19 -1 25 -9 10 -12 8 -13 -13 -9 -18 3 -25 1 -23 -9 5 -25 37
-41 66 -34 15 4 59 9 97 11 39 1 113 8 165 14 52 7 135 14 184 15 109 5 127
15 24 15 -65 0 -76 3 -81 19 -2 10 0 25 5 34 10 19 35 18 172 -12 54 -12 100
-20 103 -17 6 5 -82 66 -96 66 -9 0 -90 45 -141 80 -23 15 -65 24 -170 35 -19
2 -71 -1 -115 -6z m-5 -134 c6 -8 9 -23 5 -35 -9 -27 -74 -28 -99 -1 -16 18
-16 20 6 35 28 20 72 21 88 1z"/>
<path d="M15640 7710 c0 -5 5 -10 10 -10 6 0 10 5 10 10 0 6 -4 10 -10 10 -5
0 -10 -4 -10 -10z"/>
<path d="M13057 5996 c-9 -27 -17 -59 -16 -70 0 -12 9 4 20 34 11 30 18 62 16
70 -1 8 -11 -7 -20 -34z"/>
<path d="M13002 5385 c0 -16 2 -22 5 -12 2 9 2 23 0 30 -3 6 -5 -1 -5 -18z"/>
<path d="M12988 5310 c-12 -39 -10 -76 3 -63 6 6 9 28 7 49 -3 35 -4 36 -10
14z"/>
<path d="M12833 4346 c-4 -8 -25 -24 -45 -36 -21 -12 -38 -28 -38 -35 0 -7 -6
-18 -14 -25 -8 -6 -12 -18 -9 -26 4 -11 10 -8 24 10 10 13 19 27 19 31 0 10
53 54 74 61 11 3 39 -3 67 -17 75 -35 83 -7 9 31 -46 23 -76 25 -87 6z"/>
<path d="M12824 4154 c3 -8 2 -13 -3 -10 -5 3 -16 -9 -24 -27 -12 -24 -15 -54
-13 -117 6 -130 58 -312 91 -318 19 -4 17 6 -15 93 -10 28 -23 73 -29 100 -13
61 -31 218 -25 224 2 2 4 -2 4 -11 0 -8 23 -36 50 -62 41 -38 51 -44 56 -31 4
9 13 14 20 11 8 -3 14 -3 14 0 0 13 -46 93 -73 126 -30 38 -65 52 -53 22z"/>
<path d="M17372 4058 c-7 -7 -12 -16 -12 -21 0 -4 -13 -25 -29 -45 -31 -39
-46 -101 -44 -182 3 -83 16 -191 24 -196 5 -3 9 -10 9 -15 0 -6 -4 -7 -10 -4
-5 3 -10 1 -10 -4 0 -6 6 -11 14 -11 20 0 56 48 56 73 0 11 9 31 21 43 12 13
26 50 34 95 8 41 19 94 24 119 12 57 6 127 -13 146 -18 17 -48 18 -64 2z"/>
<path d="M13037 3852 c3 -12 9 -25 14 -28 14 -8 11 10 -6 32 -13 18 -14 18 -8
-4z"/>
<path d="M12872 3165 c-1 -18 2 -23 13 -19 11 5 12 11 4 25 -13 25 -14 24 -17
-6z"/>
<path d="M12826 3143 c-6 -14 -5 -15 5 -6 7 7 10 15 7 18 -3 3 -9 -2 -12 -12z"/>
<path d="M10908 2333 c7 -3 16 -2 19 1 4 3 -2 6 -13 5 -11 0 -14 -3 -6 -6z"/>
<path d="M10850 2293 c0 -8 5 -11 10 -8 6 3 10 1 10 -5 0 -6 5 -8 10 -5 16 10
12 22 -10 28 -13 3 -20 0 -20 -10z"/>
<path d="M14319 2250 c-12 -7 -15 -18 -10 -41 7 -34 8 -35 86 -72 28 -13 75
-37 105 -53 52 -27 62 -28 200 -30 108 -1 167 -7 230 -22 296 -73 295 -72 545
-76 177 -3 206 -5 253 -25 72 -29 144 -31 174 -5 28 25 118 68 172 83 21 5 47
18 57 27 11 9 19 13 19 8 1 -5 10 9 20 30 21 41 26 76 11 76 -4 0 -21 20 -37
45 -15 25 -33 45 -38 46 -33 3 -75 -5 -107 -21 -38 -20 -101 -20 -152 -1 -39
15 -191 16 -258 2 -32 -7 -106 -10 -170 -8 -79 2 -127 -1 -155 -10 -30 -10
-52 -11 -84 -4 -23 5 -49 7 -58 4 -10 -4 -13 -2 -8 5 8 13 -6 17 -18 5 -3 -4
-28 -6 -54 -5 -26 2 -85 4 -132 6 -47 2 -114 12 -150 21 -48 13 -83 16 -135
11 -114 -11 -148 -15 -163 -21 -8 -3 -34 4 -59 15 -51 22 -61 24 -84 10z"/>
<path d="M14734 1754 c9 -8 16 -22 16 -30 0 -8 5 -14 10 -14 6 0 10 -6 10 -12
0 -18 55 -71 127 -123 83 -59 160 -94 223 -101 14 -1 51 -10 83 -19 32 -9 66
-13 76 -10 9 3 42 -1 72 -9 61 -16 187 -32 134 -17 -27 8 -25 9 23 11 65 3 60
2 103 28 40 25 75 70 110 145 13 26 27 47 32 47 5 0 4 7 -3 14 -6 8 -10 27 -8
42 4 32 -19 40 -67 23 -42 -15 -135 -31 -168 -30 -15 1 -38 -6 -50 -14 -20
-13 -54 -14 -203 -11 -98 3 -195 7 -214 11 -28 4 -84 14 -110 19 -22 5 -159
49 -172 57 -28 14 -41 11 -24 -7z"/>
<path d="M9943 633 c9 -2 23 -2 30 0 6 3 -1 5 -18 5 -16 0 -22 -2 -12 -5z"/>
<path d="M9198 543 c6 -2 18 -2 25 0 6 3 1 5 -13 5 -14 0 -19 -2 -12 -5z"/>
<path d="M8882 480 c0 -14 2 -19 5 -12 2 6 2 18 0 25 -3 6 -5 1 -5 -13z"/>
<path d="M1328 123 c18 -2 45 -2 60 0 15 2 0 4 -33 4 -33 0 -45 -2 -27 -4z"/>
<path d="M17805 10 l-50 -7 53 -1 c29 -1 52 2 52 8 0 6 -1 9 -2 8 -2 0 -25 -4
-53 -8z"/>
<path d="M9133 3 c59 -2 155 -2 215 0 59 1 10 3 -108 3 -118 0 -167 -2 -107
-3z"/>
</g>
</svg>
