<?xml version="1.0" encoding="UTF-8"?>
<svg width="4e3" height="2250" version="1.1" viewBox="0 0 1058.3333 595.31252" xmlns="http://www.w3.org/2000/svg">
 <defs>
  <filter id="a" x="-.0162" y="-.015043" width="1.0324" height="1.0301" color-interpolation-filters="sRGB">
   <feGaussianBlur stdDeviation="0.74293622"/>
  </filter>
 </defs>
 <g transform="translate(0 298.31)">
  <rect x="-6.0476" y="-307.76" width="1073.5" height="628.95" fill="#00FF00"/>
  <path transform="matrix(.72758 0 0 .72758 144.15 -.17878)" d="m584.2 3.5771c0 30.345-24.689 55.033-55.029 55.033-30.345 0-55.033-24.689-55.033-55.033 0-15.693 6.7305-30.692 18.467-41.126 1.7447-1.5544 4.4275-1.4057 5.978 0.34739 1.5544 1.7529 1.3973 4.4154-0.3474 5.9698-9.9343 8.8471-15.631 21.53-15.631 34.809 0 25.681 20.89 46.567 46.567 46.567s46.562-20.886 46.562-46.567c0-13.279-5.6885-25.962-15.61-34.793-1.7529-1.5544-1.9182-4.2333-0.3638-5.9698 1.5711-1.7695 4.25-1.9182 5.9862-0.3638 11.724 10.434 18.455 25.433 18.455 41.126zm-55.029-12.7c2.34 0 4.2333-1.8852 4.2333-4.2333v-42.333c0-2.3318-1.8934-4.2333-4.2333-4.2333-2.34 0-4.2333 1.9018-4.2333 4.2333v42.333c0 2.3482 1.8936 4.2333 4.2333 4.2333z" 
  fill="#31a8e0" filter="url(#a)" stroke="#0079ae" stroke-width="4"/>
  <circle cx="529.17" cy="-.65627" r="96.678" fill="none" stroke="#0079ae" stroke-linecap="round" stroke-width="2.3234"/>
 </g>
</svg>
