<?xml version="1.0" standalone="no"?>
<!DOCTYPE svg PUBLIC "-//W3C//DTD SVG 20010904//EN"
 "http://www.w3.org/TR/2001/REC-SVG-20010904/DTD/svg10.dtd">
<svg version="1.0" xmlns="http://www.w3.org/2000/svg"
 width="790.000000pt" height="161.000000pt" viewBox="0 0 790.000000 161.000000"
 preserveAspectRatio="xMidYMid meet">

<g transform="translate(0.000000,161.000000) scale(0.100000,-0.100000)"
fill="#000000" stroke="none">
<path d="M5005 1085 c0 -236 1 -332 2 -212 2 120 2 314 0 430 -1 117 -2 19 -2
-218z"/>
<path d="M220 1135 l0 -235 110 0 110 0 0 80 c0 77 1 80 20 70 26 -14 41 -43
49 -99 l6 -46 118 -3 c134 -3 128 -9 102 93 -9 33 -29 80 -46 104 -26 37 -28
45 -15 55 29 22 55 91 58 151 l3 60 -110 0 -109 0 -8 -44 c-9 -50 -32 -91 -53
-91 -10 0 -15 17 -17 68 l-3 67 -107 3 -108 3 0 -236z m200 145 c0 -67 1 -70
24 -70 33 0 72 49 81 100 l7 40 95 0 96 0 -7 -51 c-8 -58 -33 -115 -65 -143
l-21 -19 31 -35 c36 -41 54 -80 64 -139 l7 -43 -100 0 -100 0 -7 38 c-14 74
-51 122 -95 122 -6 0 -10 -36 -10 -80 l0 -80 -95 0 -95 0 0 215 0 215 95 0 95
0 0 -70z"/>
<path d="M876 1357 c-19 -14 -24 -51 -12 -79 9 -21 -16 -24 -58 -8 l-26 10 0
-190 0 -190 100 0 100 0 0 218 c0 199 -2 220 -18 235 -22 20 -61 22 -86 4z
m65 -7 c36 -20 21 -80 -20 -80 -48 0 -68 42 -35 74 18 19 28 20 55 6z m19
-267 l0 -163 -85 0 -85 0 0 163 0 162 85 0 85 0 0 -162z"/>
<path d="M1030 1135 l0 -235 100 0 100 0 0 235 0 235 -100 0 -100 0 0 -235z
m180 0 l0 -215 -85 0 -85 0 0 215 0 215 85 0 85 0 0 -215z"/>
<path d="M1376 1357 c-19 -14 -24 -51 -12 -79 9 -21 -16 -24 -58 -8 l-26 10 0
-190 0 -190 100 0 100 0 0 218 c0 199 -2 220 -18 235 -22 20 -61 22 -86 4z
m65 -7 c36 -20 21 -80 -20 -80 -48 0 -68 42 -35 74 18 19 28 20 55 6z m19
-267 l0 -163 -85 0 -85 0 0 163 0 162 85 0 85 0 0 -162z"/>
<path d="M2644 1357 c-2 -7 -3 -111 -2 -232 l3 -220 110 0 110 0 3 94 3 94 29
-28 30 -28 22 28 c20 26 22 26 29 9 4 -10 8 -54 8 -96 l1 -78 110 0 110 0 -2
233 -3 232 -102 3 -101 3 -38 -45 -37 -45 -40 45 -39 44 -99 0 c-71 0 -101 -4
-105 -13z m241 -54 l39 -46 41 46 41 47 92 0 92 0 0 -215 0 -215 -95 0 -95 0
0 113 -1 112 -37 -43 -38 -42 -29 40 c-17 22 -33 40 -37 40 -5 0 -8 -49 -8
-110 l0 -110 -95 0 -95 0 0 215 0 215 93 0 93 0 39 -47z"/>
<path d="M3376 1328 c-71 -192 -142 -420 -132 -424 7 -3 57 -3 111 -2 l98 3
12 35 c11 34 13 35 73 38 l61 3 12 -41 12 -40 109 0 c59 0 108 4 108 9 0 11
-126 382 -145 429 l-14 32 -145 0 -144 0 -16 -42z m369 -185 c39 -114 72 -211
73 -215 2 -4 -39 -8 -91 -8 l-94 0 -9 33 -10 32 -76 3 -76 3 -12 -36 -12 -35
-89 0 c-49 0 -89 4 -89 9 0 7 95 291 130 389 l12 32 136 0 137 0 70 -207z"/>
<path d="M3521 1178 c-5 -13 -12 -38 -16 -55 -6 -32 -6 -33 28 -33 18 0 36 3
39 6 8 7 -24 104 -34 104 -5 0 -12 -10 -17 -22z m29 -55 c0 -7 -7 -13 -16 -13
-11 0 -14 5 -10 16 3 9 6 21 6 27 0 16 20 -14 20 -30z"/>
<path d="M3870 1135 l0 -235 110 0 109 0 3 83 3 82 19 -27 c10 -15 21 -51 25
-80 l6 -53 113 -3 112 -3 0 28 c0 41 -27 123 -54 163 -22 34 -22 36 -5 54 22
23 34 76 25 113 -10 38 -66 89 -111 102 -22 6 -111 11 -197 11 l-158 0 0 -235z
m377 198 c71 -34 96 -125 48 -181 l-25 -30 21 -26 c26 -33 59 -118 59 -151 0
-25 -1 -25 -94 -25 l-94 0 -7 47 c-11 75 -37 113 -76 113 -5 0 -9 -36 -9 -80
l0 -80 -95 0 -95 0 0 215 0 215 166 0 c134 0 173 -3 201 -17z"/>
<path d="M4070 1225 c0 -46 8 -53 44 -39 23 9 21 61 -3 74 -34 18 -41 11 -41
-35z m46 -14 c-13 -20 -26 -11 -26 16 0 25 1 26 16 11 9 -9 13 -21 10 -27z"/>
<path d="M4404 1357 c-2 -7 -3 -111 -2 -232 l3 -220 110 0 110 0 3 94 3 94 29
-28 30 -28 22 28 c20 26 22 26 29 9 4 -10 8 -54 8 -96 l1 -78 110 0 110 0 -2
233 -3 232 -102 3 -101 3 -38 -45 -37 -45 -40 45 -39 44 -99 0 c-71 0 -101 -4
-105 -13z m241 -54 l39 -46 41 46 41 47 92 0 92 0 0 -215 0 -215 -95 0 -95 0
0 113 -1 112 -37 -43 -38 -42 -29 40 c-17 22 -33 40 -37 40 -5 0 -8 -49 -8
-110 l0 -110 -95 0 -95 0 0 215 0 215 93 0 93 0 39 -47z"/>
<path d="M5040 1135 l0 -235 110 0 110 0 -2 233 -3 232 -107 3 -108 3 0 -236z
m200 0 l0 -215 -95 0 -95 0 0 215 0 215 95 0 95 0 0 -215z"/>
<path d="M5325 1358 c-3 -8 -4 -112 -3 -233 l3 -220 198 -3 198 -2 -3 67 -3
68 -82 3 -83 3 -2 162 -3 162 -108 3 c-81 2 -109 0 -112 -10z m205 -173 l0
-165 85 0 85 0 0 -50 0 -50 -180 0 -180 0 0 215 0 215 95 0 95 0 0 -165z"/>
<path d="M5746 1145 c-4 -124 -4 -230 -1 -235 4 -6 87 -10 201 -10 l195 0 -3
68 -3 67 -82 3 -83 3 -2 162 -3 162 -106 3 -106 3 -7 -226z m204 40 l0 -165
85 0 85 0 0 -50 0 -50 -180 0 -180 0 0 215 0 215 95 0 95 0 0 -165z"/>
<path d="M6170 1135 l0 -235 110 0 110 0 -2 233 -3 232 -107 3 -108 3 0 -236z
m200 0 l0 -215 -95 0 -95 0 0 215 0 215 95 0 95 0 0 -215z"/>
<path d="M6575 1356 c-122 -53 -178 -201 -121 -321 43 -91 115 -137 217 -137
132 0 231 100 232 236 1 96 -51 177 -138 217 -47 22 -146 24 -190 5z m194 -26
c135 -68 160 -241 51 -351 -99 -99 -255 -84 -336 32 -26 38 -29 50 -29 124 0
74 3 86 29 123 66 95 183 125 285 72z"/>
<path d="M6638 1181 c-19 -16 -21 -23 -13 -47 20 -56 90 -37 83 22 -4 37 -39
49 -70 25z m50 -13 c16 -16 15 -23 -4 -43 -12 -12 -19 -13 -30 -4 -17 14 -18
46 -1 52 19 8 22 8 35 -5z"/>
<path d="M6937 1363 c-4 -3 -7 -53 -7 -110 l0 -103 50 0 50 0 0 -125 0 -125
110 0 109 0 3 123 3 122 48 3 47 3 0 110 0 109 -203 0 c-112 0 -207 -3 -210
-7z m393 -108 l0 -95 -45 0 -45 0 0 -120 0 -120 -95 0 -95 0 0 120 0 120 -50
0 -50 0 0 95 0 95 190 0 190 0 0 -95z"/>
<path d="M1633 1270 c-23 -5 -55 -16 -72 -25 -29 -15 -31 -19 -31 -76 l0 -61
28 6 c15 4 50 9 77 11 l50 5 -55 -14 c-76 -20 -114 -63 -107 -120 10 -75 94
-120 158 -86 13 7 19 7 19 0 0 -6 38 -10 100 -10 l100 0 0 133 c0 152 -12 188
-73 220 -43 22 -133 30 -194 17z m191 -34 c51 -33 60 -60 64 -192 l4 -124 -85
0 c-68 0 -86 3 -91 16 -5 14 -8 14 -28 0 -58 -41 -148 -2 -148 64 0 66 49 103
128 99 50 -3 59 12 24 39 -17 14 -89 12 -124 -3 -16 -6 -18 -1 -18 43 l0 49
53 17 c66 20 185 16 221 -8z"/>
<path d="M1656 1035 c-24 -24 -4 -57 32 -53 23 2 27 8 27 33 0 23 -5 31 -21
33 -12 2 -29 -4 -38 -13z m44 -20 c0 -8 -6 -15 -14 -15 -17 0 -28 14 -19 24
12 12 33 6 33 -9z"/>
<path d="M2198 1266 c-21 -8 -38 -10 -38 -5 0 5 -45 9 -100 9 l-100 0 0 -185
0 -185 100 0 100 0 0 118 c0 65 3 122 7 125 3 4 12 2 20 -4 9 -8 13 -42 13
-125 l0 -114 95 0 95 0 0 143 c0 162 -12 196 -75 223 -42 17 -69 17 -117 0z
m-58 -26 c0 -11 5 -20 11 -20 6 0 22 9 36 20 29 23 88 26 128 8 45 -20 58 -60
63 -200 l5 -128 -86 0 -86 0 -3 118 -3 117 -30 0 -30 0 -3 -117 -3 -118 -84 0
-85 0 0 170 0 170 85 0 c78 0 85 -2 85 -20z"/>
</g>
</svg>
